<?xml version="1.0" encoding="utf-8"?>
<svg xmlns="http://www.w3.org/2000/svg" xmlns:xlink="http://www.w3.org/1999/xlink" width="600" height="400" viewBox="0 0 2400 1600">
<defs>
  <clipPath id="clip910">
    <rect x="0" y="0" width="2400" height="1600"/>
  </clipPath>
</defs>
<path clip-path="url(#clip910)" d="
M0 1600 L2400 1600 L2400 0 L0 0  Z
  " fill="#ffffff" fill-rule="evenodd" fill-opacity="1"/>
<defs>
  <clipPath id="clip911">
    <rect x="480" y="0" width="1681" height="1600"/>
  </clipPath>
</defs>
<path clip-path="url(#clip910)" d="
M418.303 1398.09 L2352.76 1398.09 L2352.76 47.2441 L418.303 47.2441  Z
  " fill="#ffffff" fill-rule="evenodd" fill-opacity="1"/>
<defs>
  <clipPath id="clip912">
    <rect x="418" y="47" width="1935" height="1352"/>
  </clipPath>
</defs>
<polyline clip-path="url(#clip912)" style="stroke:#000000; stroke-width:2; stroke-opacity:0.1; fill:none" points="
  679.351,1398.09 679.351,47.2441 
  "/>
<polyline clip-path="url(#clip912)" style="stroke:#000000; stroke-width:2; stroke-opacity:0.1; fill:none" points="
  1032.44,1398.09 1032.44,47.2441 
  "/>
<polyline clip-path="url(#clip912)" style="stroke:#000000; stroke-width:2; stroke-opacity:0.1; fill:none" points="
  1385.53,1398.09 1385.53,47.2441 
  "/>
<polyline clip-path="url(#clip912)" style="stroke:#000000; stroke-width:2; stroke-opacity:0.1; fill:none" points="
  1738.62,1398.09 1738.62,47.2441 
  "/>
<polyline clip-path="url(#clip912)" style="stroke:#000000; stroke-width:2; stroke-opacity:0.1; fill:none" points="
  2091.71,1398.09 2091.71,47.2441 
  "/>
<polyline clip-path="url(#clip910)" style="stroke:#000000; stroke-width:4; stroke-opacity:1; fill:none" points="
  418.303,1398.09 2352.76,1398.09 
  "/>
<polyline clip-path="url(#clip910)" style="stroke:#000000; stroke-width:4; stroke-opacity:1; fill:none" points="
  679.351,1398.09 679.351,1381.88 
  "/>
<polyline clip-path="url(#clip910)" style="stroke:#000000; stroke-width:4; stroke-opacity:1; fill:none" points="
  1032.44,1398.09 1032.44,1381.88 
  "/>
<polyline clip-path="url(#clip910)" style="stroke:#000000; stroke-width:4; stroke-opacity:1; fill:none" points="
  1385.53,1398.09 1385.53,1381.88 
  "/>
<polyline clip-path="url(#clip910)" style="stroke:#000000; stroke-width:4; stroke-opacity:1; fill:none" points="
  1738.62,1398.09 1738.62,1381.88 
  "/>
<polyline clip-path="url(#clip910)" style="stroke:#000000; stroke-width:4; stroke-opacity:1; fill:none" points="
  2091.71,1398.09 2091.71,1381.88 
  "/>
<path clip-path="url(#clip910)" d="M 0 0 M608.743 1454.25 L653.257 1454.25 L653.257 1460.15 L608.743 1460.15 L608.743 1454.25 Z" fill="#000000" fill-rule="evenodd" fill-opacity="1" /><path clip-path="url(#clip910)" d="M 0 0 M675.861 1432.27 Q670.444 1432.27 667.701 1437.62 Q664.993 1442.93 664.993 1453.63 Q664.993 1464.29 667.701 1469.63 Q670.444 1474.95 675.861 1474.95 Q681.312 1474.95 684.021 1469.63 Q686.764 1464.29 686.764 1453.63 Q686.764 1442.93 684.021 1437.62 Q681.312 1432.27 675.861 1432.27 M675.861 1426.72 Q684.576 1426.72 689.16 1433.63 Q693.778 1440.5 693.778 1453.63 Q693.778 1466.72 689.16 1473.63 Q684.576 1480.5 675.861 1480.5 Q667.146 1480.5 662.528 1473.63 Q657.944 1466.72 657.944 1453.63 Q657.944 1440.5 662.528 1433.63 Q667.146 1426.72 675.861 1426.72 Z" fill="#000000" fill-rule="evenodd" fill-opacity="1" /><path clip-path="url(#clip910)" d="M 0 0 M701.382 1470.68 L708.708 1470.68 L708.708 1479.49 L701.382 1479.49 L701.382 1470.68 Z" fill="#000000" fill-rule="evenodd" fill-opacity="1" /><path clip-path="url(#clip910)" d="M 0 0 M735.583 1433.77 L717.875 1461.44 L735.583 1461.44 L735.583 1433.77 M733.743 1427.65 L742.562 1427.65 L742.562 1461.44 L749.958 1461.44 L749.958 1467.27 L742.562 1467.27 L742.562 1479.49 L735.583 1479.49 L735.583 1467.27 L712.18 1467.27 L712.18 1460.5 L733.743 1427.65 Z" fill="#000000" fill-rule="evenodd" fill-opacity="1" /><path clip-path="url(#clip910)" d="M 0 0 M963.395 1454.25 L1007.91 1454.25 L1007.91 1460.15 L963.395 1460.15 L963.395 1454.25 Z" fill="#000000" fill-rule="evenodd" fill-opacity="1" /><path clip-path="url(#clip910)" d="M 0 0 M1030.51 1432.27 Q1025.1 1432.27 1022.35 1437.62 Q1019.64 1442.93 1019.64 1453.63 Q1019.64 1464.29 1022.35 1469.63 Q1025.1 1474.95 1030.51 1474.95 Q1035.96 1474.95 1038.67 1469.63 Q1041.42 1464.29 1041.42 1453.63 Q1041.42 1442.93 1038.67 1437.62 Q1035.96 1432.27 1030.51 1432.27 M1030.51 1426.72 Q1039.23 1426.72 1043.81 1433.63 Q1048.43 1440.5 1048.43 1453.63 Q1048.43 1466.72 1043.81 1473.63 Q1039.23 1480.5 1030.51 1480.5 Q1021.8 1480.5 1017.18 1473.63 Q1012.6 1466.72 1012.6 1453.63 Q1012.6 1440.5 1017.18 1433.63 Q1021.8 1426.72 1030.51 1426.72 Z" fill="#000000" fill-rule="evenodd" fill-opacity="1" /><path clip-path="url(#clip910)" d="M 0 0 M1056.03 1470.68 L1063.36 1470.68 L1063.36 1479.49 L1056.03 1479.49 L1056.03 1470.68 Z" fill="#000000" fill-rule="evenodd" fill-opacity="1" /><path clip-path="url(#clip910)" d="M 0 0 M1077.01 1473.59 L1101.48 1473.59 L1101.48 1479.49 L1068.57 1479.49 L1068.57 1473.59 Q1072.56 1469.46 1079.44 1462.52 Q1086.35 1455.54 1088.12 1453.52 Q1091.48 1449.74 1092.8 1447.13 Q1094.16 1444.49 1094.16 1441.96 Q1094.16 1437.83 1091.24 1435.22 Q1088.36 1432.62 1083.71 1432.62 Q1080.41 1432.62 1076.73 1433.77 Q1073.08 1434.91 1068.92 1437.24 L1068.92 1430.15 Q1073.15 1428.45 1076.83 1427.59 Q1080.51 1426.72 1083.57 1426.72 Q1091.62 1426.72 1096.42 1430.74 Q1101.21 1434.77 1101.21 1441.51 Q1101.21 1444.7 1099.99 1447.58 Q1098.81 1450.43 1095.65 1454.32 Q1094.78 1455.33 1090.13 1460.15 Q1085.48 1464.95 1077.01 1473.59 Z" fill="#000000" fill-rule="evenodd" fill-opacity="1" /><path clip-path="url(#clip910)" d="M 0 0 M1357.8 1432.27 Q1352.39 1432.27 1349.64 1437.62 Q1346.94 1442.93 1346.94 1453.63 Q1346.94 1464.29 1349.64 1469.63 Q1352.39 1474.95 1357.8 1474.95 Q1363.26 1474.95 1365.96 1469.63 Q1368.71 1464.29 1368.71 1453.63 Q1368.71 1442.93 1365.96 1437.62 Q1363.26 1432.27 1357.8 1432.27 M1357.8 1426.72 Q1366.52 1426.72 1371.1 1433.63 Q1375.72 1440.5 1375.72 1453.63 Q1375.72 1466.72 1371.1 1473.63 Q1366.52 1480.5 1357.8 1480.5 Q1349.09 1480.5 1344.47 1473.63 Q1339.89 1466.72 1339.89 1453.63 Q1339.89 1440.5 1344.47 1433.63 Q1349.09 1426.72 1357.8 1426.72 Z" fill="#000000" fill-rule="evenodd" fill-opacity="1" /><path clip-path="url(#clip910)" d="M 0 0 M1383.32 1470.68 L1390.65 1470.68 L1390.65 1479.49 L1383.32 1479.49 L1383.32 1470.68 Z" fill="#000000" fill-rule="evenodd" fill-opacity="1" /><path clip-path="url(#clip910)" d="M 0 0 M1413.25 1432.27 Q1407.84 1432.27 1405.1 1437.62 Q1402.39 1442.93 1402.39 1453.63 Q1402.39 1464.29 1405.1 1469.63 Q1407.84 1474.95 1413.25 1474.95 Q1418.71 1474.95 1421.41 1469.63 Q1424.16 1464.29 1424.16 1453.63 Q1424.16 1442.93 1421.41 1437.62 Q1418.71 1432.27 1413.25 1432.27 M1413.25 1426.72 Q1421.97 1426.72 1426.55 1433.63 Q1431.17 1440.5 1431.17 1453.63 Q1431.17 1466.72 1426.55 1473.63 Q1421.97 1480.5 1413.25 1480.5 Q1404.54 1480.5 1399.92 1473.63 Q1395.34 1466.72 1395.34 1453.63 Q1395.34 1440.5 1399.92 1433.63 Q1404.54 1426.72 1413.25 1426.72 Z" fill="#000000" fill-rule="evenodd" fill-opacity="1" /><path clip-path="url(#clip910)" d="M 0 0 M1712.09 1432.27 Q1706.67 1432.27 1703.93 1437.62 Q1701.22 1442.93 1701.22 1453.63 Q1701.22 1464.29 1703.93 1469.63 Q1706.67 1474.95 1712.09 1474.95 Q1717.54 1474.95 1720.25 1469.63 Q1722.99 1464.29 1722.99 1453.63 Q1722.99 1442.93 1720.25 1437.62 Q1717.54 1432.27 1712.09 1432.27 M1712.09 1426.72 Q1720.81 1426.72 1725.39 1433.63 Q1730.01 1440.5 1730.01 1453.63 Q1730.01 1466.72 1725.39 1473.63 Q1720.81 1480.5 1712.09 1480.5 Q1703.38 1480.5 1698.76 1473.63 Q1694.17 1466.72 1694.17 1453.63 Q1694.17 1440.5 1698.76 1433.63 Q1703.38 1426.72 1712.09 1426.72 Z" fill="#000000" fill-rule="evenodd" fill-opacity="1" /><path clip-path="url(#clip910)" d="M 0 0 M1737.61 1470.68 L1744.94 1470.68 L1744.94 1479.49 L1737.61 1479.49 L1737.61 1470.68 Z" fill="#000000" fill-rule="evenodd" fill-opacity="1" /><path clip-path="url(#clip910)" d="M 0 0 M1758.58 1473.59 L1783.06 1473.59 L1783.06 1479.49 L1750.15 1479.49 L1750.15 1473.59 Q1754.14 1469.46 1761.01 1462.52 Q1767.92 1455.54 1769.69 1453.52 Q1773.06 1449.74 1774.38 1447.13 Q1775.74 1444.49 1775.74 1441.96 Q1775.74 1437.83 1772.82 1435.22 Q1769.94 1432.62 1765.29 1432.62 Q1761.99 1432.62 1758.31 1433.77 Q1754.66 1434.91 1750.49 1437.24 L1750.49 1430.15 Q1754.73 1428.45 1758.41 1427.59 Q1762.09 1426.72 1765.15 1426.72 Q1773.2 1426.72 1777.99 1430.74 Q1782.78 1434.77 1782.78 1441.51 Q1782.78 1444.7 1781.57 1447.58 Q1780.39 1450.43 1777.23 1454.32 Q1776.36 1455.33 1771.71 1460.15 Q1767.06 1464.95 1758.58 1473.59 Z" fill="#000000" fill-rule="evenodd" fill-opacity="1" /><path clip-path="url(#clip910)" d="M 0 0 M2063.62 1432.27 Q2058.2 1432.27 2055.46 1437.62 Q2052.75 1442.93 2052.75 1453.63 Q2052.75 1464.29 2055.46 1469.63 Q2058.2 1474.95 2063.62 1474.95 Q2069.07 1474.95 2071.78 1469.63 Q2074.52 1464.29 2074.52 1453.63 Q2074.52 1442.93 2071.78 1437.62 Q2069.07 1432.27 2063.62 1432.27 M2063.62 1426.72 Q2072.33 1426.72 2076.92 1433.63 Q2081.53 1440.5 2081.53 1453.63 Q2081.53 1466.72 2076.92 1473.63 Q2072.33 1480.5 2063.62 1480.5 Q2054.9 1480.5 2050.28 1473.63 Q2045.7 1466.72 2045.7 1453.63 Q2045.7 1440.5 2050.28 1433.63 Q2054.9 1426.72 2063.62 1426.72 Z" fill="#000000" fill-rule="evenodd" fill-opacity="1" /><path clip-path="url(#clip910)" d="M 0 0 M2089.14 1470.68 L2096.46 1470.68 L2096.46 1479.49 L2089.14 1479.49 L2089.14 1470.68 Z" fill="#000000" fill-rule="evenodd" fill-opacity="1" /><path clip-path="url(#clip910)" d="M 0 0 M2123.34 1433.77 L2105.63 1461.44 L2123.34 1461.44 L2123.34 1433.77 M2121.5 1427.65 L2130.32 1427.65 L2130.32 1461.44 L2137.71 1461.44 L2137.71 1467.27 L2130.32 1467.27 L2130.32 1479.49 L2123.34 1479.49 L2123.34 1467.27 L2099.94 1467.27 L2099.94 1460.5 L2121.5 1427.65 Z" fill="#000000" fill-rule="evenodd" fill-opacity="1" /><path clip-path="url(#clip910)" d="M 0 0 M1339.52 1497.4 Q1339.52 1499.08 1338.13 1499.08 Q1335.67 1499.16 1333.99 1499.65 Q1332.31 1500.1 1331.33 1501 Q1330.38 1501.9 1329.85 1502.89 Q1329.36 1503.83 1329.03 1505.27 L1321.57 1535.06 Q1319.44 1543.47 1312.55 1549.57 Q1305.67 1555.64 1297.84 1555.64 Q1293.37 1555.64 1289.64 1553.8 Q1285.95 1551.95 1283.65 1548.22 Q1281.36 1544.49 1281.36 1539.53 Q1281.36 1537.15 1281.97 1534.65 L1287.06 1513.91 L1288.94 1506.54 Q1290.34 1501.08 1290.34 1500.59 Q1290.34 1499.81 1289.84 1499.61 Q1289.39 1499.36 1288.08 1499.24 L1284.88 1499.08 Q1283.9 1499.08 1283.49 1499.03 Q1283.12 1498.99 1282.83 1498.79 Q1282.55 1498.58 1282.55 1498.13 Q1282.55 1497.56 1282.67 1497.19 Q1282.83 1496.78 1283.12 1496.66 Q1283.41 1496.53 1283.61 1496.49 Q1283.82 1496.45 1284.15 1496.45 L1294.97 1496.7 L1305.71 1496.45 Q1306.9 1496.45 1306.9 1497.4 Q1306.9 1498.58 1306.36 1498.83 Q1305.83 1499.08 1304.03 1499.08 Q1300.95 1499.08 1299.56 1499.49 Q1298.21 1499.85 1297.8 1500.51 Q1297.43 1501.13 1296.98 1502.93 L1288.82 1535.6 Q1288.41 1537.24 1288.16 1538.88 Q1287.96 1540.47 1287.96 1541.29 L1287.92 1542.11 Q1287.92 1547.32 1290.79 1550.19 Q1293.7 1553.06 1298.16 1553.06 Q1304.72 1553.06 1310.83 1547.85 Q1316.98 1542.65 1319.07 1534.49 L1326.61 1504.53 Q1326.86 1503.79 1326.86 1502.76 Q1326.86 1501.13 1325.63 1500.14 Q1324.44 1499.12 1321.16 1499.08 Q1319.64 1499.08 1319.64 1498.13 Q1319.64 1497.35 1319.93 1496.99 Q1320.26 1496.58 1320.5 1496.53 Q1320.79 1496.45 1321.16 1496.45 Q1322.55 1496.45 1325.5 1496.58 Q1328.46 1496.7 1329.89 1496.7 Q1331.33 1496.7 1334.19 1496.58 Q1337.06 1496.45 1338.46 1496.45 Q1338.95 1496.45 1339.2 1496.7 Q1339.48 1496.9 1339.52 1497.15 L1339.52 1497.4 Z" fill="#000000" fill-rule="evenodd" fill-opacity="1" /><path clip-path="url(#clip910)" d="M 0 0 M1338.1 1532.81 Q1338.1 1518.63 1343.39 1507.19 Q1345.64 1502.4 1348.8 1498.38 Q1351.96 1494.36 1354.05 1492.6 Q1356.14 1490.84 1356.71 1490.84 Q1357.53 1490.84 1357.57 1491.66 Q1357.57 1492.07 1356.46 1493.09 Q1342.94 1506.86 1342.98 1532.81 Q1342.98 1558.84 1356.14 1572.08 Q1357.57 1573.51 1357.57 1573.96 Q1357.57 1574.78 1356.71 1574.78 Q1356.14 1574.78 1354.13 1573.1 Q1352.12 1571.42 1349 1567.57 Q1345.89 1563.72 1343.64 1559 Q1338.1 1547.57 1338.1 1532.81 Z" fill="#000000" fill-rule="evenodd" fill-opacity="1" /><path clip-path="url(#clip910)" d="M 0 0 M1402.26 1544.08 Q1402.59 1544.45 1402.59 1544.82 Q1402.59 1545.19 1401.77 1546.25 Q1400.99 1547.32 1399.31 1548.75 Q1397.63 1550.19 1395.46 1551.54 Q1393.28 1552.89 1390.09 1553.8 Q1386.89 1554.74 1383.53 1554.74 Q1377.5 1554.74 1373.89 1550.44 Q1370.33 1546.13 1370.33 1539.53 Q1370.33 1535.31 1371.72 1531.58 Q1373.12 1527.81 1375.37 1525.15 Q1377.67 1522.48 1380.54 1520.55 Q1383.45 1518.59 1386.48 1517.64 Q1389.51 1516.7 1392.34 1516.7 Q1396.48 1516.7 1398.9 1518.79 Q1401.32 1520.88 1401.32 1523.83 Q1401.32 1524.53 1401.11 1525.39 Q1400.95 1526.25 1400.37 1527.6 Q1399.84 1528.96 1398.45 1530.31 Q1397.05 1531.62 1395 1532.48 Q1390.45 1534.41 1382.17 1534.41 L1377.71 1534.41 Q1376.4 1539.7 1376.4 1543.14 Q1376.4 1544.49 1376.64 1545.89 Q1376.89 1547.24 1377.54 1548.96 Q1378.24 1550.68 1379.8 1551.79 Q1381.4 1552.85 1383.69 1552.85 Q1384.43 1552.85 1385.21 1552.81 Q1386.03 1552.77 1388.08 1552.32 Q1390.17 1551.87 1392.01 1551.09 Q1393.86 1550.31 1396.19 1548.63 Q1398.57 1546.91 1400.46 1544.57 Q1401.11 1543.71 1401.56 1543.71 Q1401.93 1543.71 1402.26 1544.08 M1398.53 1523.83 Q1398.53 1521.58 1396.85 1520.06 Q1395.21 1518.55 1392.34 1518.55 Q1391.44 1518.55 1390.33 1518.75 Q1389.22 1518.96 1387.38 1519.82 Q1385.58 1520.68 1383.98 1522.11 Q1382.38 1523.51 1380.78 1526.25 Q1379.18 1528.96 1378.24 1532.56 L1381.68 1532.56 Q1382.87 1532.56 1383.73 1532.56 Q1384.59 1532.52 1386.48 1532.36 Q1388.41 1532.2 1389.8 1531.91 Q1391.19 1531.58 1392.95 1530.92 Q1394.72 1530.27 1395.82 1529.41 Q1396.97 1528.51 1397.75 1527.07 Q1398.53 1525.64 1398.53 1523.83 Z" fill="#000000" fill-rule="evenodd" fill-opacity="1" /><path clip-path="url(#clip910)" d="M 0 0 M1468.89 1497.48 Q1468.81 1498.99 1467.79 1499.08 Q1466.23 1499.16 1465.29 1499.36 Q1464.34 1499.53 1462.87 1500.14 Q1461.39 1500.76 1459.96 1502.23 Q1458.52 1503.71 1457.05 1506.04 L1426.84 1554.12 Q1426.31 1555.03 1425.86 1555.31 Q1425.45 1555.64 1424.5 1555.64 Q1423.64 1555.64 1423.31 1555.27 Q1422.99 1554.94 1422.82 1553.71 L1416.18 1501.9 Q1416.06 1500.96 1415.94 1500.55 Q1415.81 1500.14 1415.32 1499.73 Q1414.87 1499.32 1413.89 1499.2 Q1412.9 1499.08 1411.14 1499.08 Q1410.32 1499.08 1409.95 1499.03 Q1409.62 1498.99 1409.34 1498.79 Q1409.05 1498.54 1409.05 1498.05 Q1409.05 1497.31 1409.34 1496.94 Q1409.67 1496.53 1409.91 1496.49 Q1410.2 1496.45 1410.65 1496.45 Q1411.35 1496.45 1412.86 1496.53 Q1414.38 1496.62 1415.16 1496.62 Q1415.9 1496.62 1417.45 1496.66 Q1419.01 1496.7 1419.79 1496.7 Q1421.51 1496.7 1425 1496.58 Q1428.52 1496.45 1430.2 1496.45 Q1431.35 1496.45 1431.35 1497.4 Q1431.35 1498.54 1430.86 1498.83 Q1430.36 1499.08 1429.26 1499.08 Q1426.47 1499.08 1424.95 1499.77 Q1423.48 1500.47 1423.48 1501.58 L1429.18 1546.01 L1454.96 1505.02 Q1456.23 1503.09 1456.23 1501.82 Q1456.23 1499.36 1452.33 1499.08 Q1451.02 1499.08 1451.02 1498.05 Q1451.02 1497.31 1451.35 1496.94 Q1451.68 1496.53 1451.92 1496.49 Q1452.21 1496.45 1452.62 1496.45 Q1453.97 1496.45 1456.72 1496.58 Q1459.51 1496.7 1460.9 1496.7 Q1462.05 1496.7 1464.39 1496.58 Q1466.72 1496.45 1467.79 1496.45 Q1468.89 1496.45 1468.89 1497.48 Z" fill="#000000" fill-rule="evenodd" fill-opacity="1" /><path clip-path="url(#clip910)" d="M 0 0 M1457.47 1573.96 Q1457.47 1573.55 1458.54 1572.53 Q1472.06 1558.76 1472.06 1532.81 Q1472.06 1506.78 1459.07 1493.62 Q1457.47 1492.11 1457.47 1491.66 Q1457.47 1490.84 1458.29 1490.84 Q1458.87 1490.84 1460.87 1492.52 Q1462.92 1494.2 1466 1498.05 Q1469.11 1501.9 1471.41 1506.62 Q1476.94 1518.05 1476.94 1532.81 Q1476.94 1546.99 1471.65 1558.43 Q1469.4 1563.22 1466.24 1567.24 Q1463.09 1571.26 1461 1573.02 Q1458.91 1574.78 1458.29 1574.78 Q1457.47 1574.78 1457.47 1573.96 Z" fill="#000000" fill-rule="evenodd" fill-opacity="1" /><polyline clip-path="url(#clip912)" style="stroke:#000000; stroke-width:2; stroke-opacity:0.1; fill:none" points="
  418.303,1359.86 2352.76,1359.86 
  "/>
<polyline clip-path="url(#clip912)" style="stroke:#000000; stroke-width:2; stroke-opacity:0.1; fill:none" points="
  418.303,1019.76 2352.76,1019.76 
  "/>
<polyline clip-path="url(#clip912)" style="stroke:#000000; stroke-width:2; stroke-opacity:0.1; fill:none" points="
  418.303,679.665 2352.76,679.665 
  "/>
<polyline clip-path="url(#clip912)" style="stroke:#000000; stroke-width:2; stroke-opacity:0.1; fill:none" points="
  418.303,339.569 2352.76,339.569 
  "/>
<polyline clip-path="url(#clip910)" style="stroke:#000000; stroke-width:4; stroke-opacity:1; fill:none" points="
  418.303,1398.09 418.303,47.2441 
  "/>
<polyline clip-path="url(#clip910)" style="stroke:#000000; stroke-width:4; stroke-opacity:1; fill:none" points="
  418.303,1359.86 441.516,1359.86 
  "/>
<polyline clip-path="url(#clip910)" style="stroke:#000000; stroke-width:4; stroke-opacity:1; fill:none" points="
  418.303,1019.76 441.516,1019.76 
  "/>
<polyline clip-path="url(#clip910)" style="stroke:#000000; stroke-width:4; stroke-opacity:1; fill:none" points="
  418.303,679.665 441.516,679.665 
  "/>
<polyline clip-path="url(#clip910)" style="stroke:#000000; stroke-width:4; stroke-opacity:1; fill:none" points="
  418.303,339.569 441.516,339.569 
  "/>
<path clip-path="url(#clip910)" d="M 0 0 M364.386 1338.55 Q358.969 1338.55 356.226 1343.9 Q353.518 1349.21 353.518 1359.91 Q353.518 1370.57 356.226 1375.91 Q358.969 1381.23 364.386 1381.23 Q369.837 1381.23 372.546 1375.91 Q375.289 1370.57 375.289 1359.91 Q375.289 1349.21 372.546 1343.9 Q369.837 1338.55 364.386 1338.55 M364.386 1333 Q373.101 1333 377.685 1339.91 Q382.303 1346.78 382.303 1359.91 Q382.303 1373 377.685 1379.91 Q373.101 1386.78 364.386 1386.78 Q355.671 1386.78 351.053 1379.91 Q346.469 1373 346.469 1359.91 Q346.469 1346.78 351.053 1339.91 Q355.671 1333 364.386 1333 Z" fill="#000000" fill-rule="evenodd" fill-opacity="1" /><path clip-path="url(#clip910)" d="M 0 0 M169.207 1049.45 L193.686 1049.45 L193.686 1055.35 L160.769 1055.35 L160.769 1049.45 Q164.763 1045.32 171.637 1038.37 Q178.547 1031.39 180.318 1029.38 Q183.686 1025.59 185.005 1022.99 Q186.36 1020.35 186.36 1017.82 Q186.36 1013.68 183.443 1011.08 Q180.561 1008.48 175.908 1008.48 Q172.61 1008.48 168.929 1009.62 Q165.283 1010.77 161.117 1013.09 L161.117 1006.01 Q165.353 1004.31 169.033 1003.44 Q172.714 1002.57 175.769 1002.57 Q183.825 1002.57 188.617 1006.6 Q193.408 1010.63 193.408 1017.37 Q193.408 1020.56 192.193 1023.44 Q191.012 1026.29 187.853 1030.18 Q186.985 1031.18 182.332 1036.01 Q177.679 1040.8 169.207 1049.45 Z" fill="#000000" fill-rule="evenodd" fill-opacity="1" /><path clip-path="url(#clip910)" d="M 0 0 M243.547 1017.16 L227.679 1033.09 L243.547 1048.96 L239.415 1053.16 L223.477 1037.23 L207.54 1053.16 L203.443 1048.96 L219.276 1033.09 L203.443 1017.16 L207.54 1012.96 L223.477 1028.89 L239.415 1012.96 L243.547 1017.16 Z" fill="#000000" fill-rule="evenodd" fill-opacity="1" /><path clip-path="url(#clip910)" d="M 0 0 M252.366 1049.45 L263.824 1049.45 L263.824 1009.9 L251.359 1012.4 L251.359 1006.01 L263.755 1003.51 L270.769 1003.51 L270.769 1049.45 L282.227 1049.45 L282.227 1055.35 L252.366 1055.35 L252.366 1049.45 Z" fill="#000000" fill-rule="evenodd" fill-opacity="1" /><path clip-path="url(#clip910)" d="M 0 0 M304.831 1008.13 Q299.415 1008.13 296.672 1013.48 Q293.963 1018.79 293.963 1029.48 Q293.963 1040.14 296.672 1045.49 Q299.415 1050.8 304.831 1050.8 Q310.283 1050.8 312.991 1045.49 Q315.734 1040.14 315.734 1029.48 Q315.734 1018.79 312.991 1013.48 Q310.283 1008.13 304.831 1008.13 M304.831 1002.57 Q313.546 1002.57 318.13 1009.48 Q322.748 1016.36 322.748 1029.48 Q322.748 1042.57 318.13 1049.48 Q313.546 1056.36 304.831 1056.36 Q296.116 1056.36 291.498 1049.48 Q286.915 1042.57 286.915 1029.48 Q286.915 1016.36 291.498 1009.48 Q296.116 1002.57 304.831 1002.57 Z" fill="#000000" fill-rule="evenodd" fill-opacity="1" /><path clip-path="url(#clip910)" d="M 0 0 M341.791 991.525 Q345.881 992.4 348.166 995.165 Q350.48 997.929 350.48 1001.99 Q350.48 1008.23 346.192 1011.64 Q341.903 1015.05 334.004 1015.05 Q331.352 1015.05 328.531 1014.52 Q325.738 1014.01 322.748 1012.97 L322.748 1007.46 Q325.118 1008.85 327.939 1009.55 Q330.76 1010.26 333.835 1010.26 Q339.195 1010.26 341.988 1008.14 Q344.809 1006.03 344.809 1001.99 Q344.809 998.268 342.186 996.18 Q339.59 994.064 334.935 994.064 L330.026 994.064 L330.026 989.381 L335.161 989.381 Q339.364 989.381 341.593 987.717 Q343.822 986.024 343.822 982.864 Q343.822 979.62 341.509 977.899 Q339.223 976.15 334.935 976.15 Q332.594 976.15 329.914 976.658 Q327.233 977.166 324.017 978.238 L324.017 973.159 Q327.262 972.257 330.083 971.805 Q332.932 971.354 335.443 971.354 Q341.932 971.354 345.712 974.316 Q349.492 977.25 349.492 982.272 Q349.492 985.77 347.489 988.196 Q345.486 990.594 341.791 991.525 Z" fill="#000000" fill-rule="evenodd" fill-opacity="1" /><path clip-path="url(#clip910)" d="M 0 0 M355.219 972.116 L382.303 972.116 L382.303 974.542 L367.012 1014.24 L361.059 1014.24 L375.447 976.912 L355.219 976.912 L355.219 972.116 Z" fill="#000000" fill-rule="evenodd" fill-opacity="1" /><path clip-path="url(#clip910)" d="M 0 0 M179.311 669.527 L161.603 697.2 L179.311 697.2 L179.311 669.527 M177.471 663.416 L186.29 663.416 L186.29 697.2 L193.686 697.2 L193.686 703.034 L186.29 703.034 L186.29 715.256 L179.311 715.256 L179.311 703.034 L155.908 703.034 L155.908 696.263 L177.471 663.416 Z" fill="#000000" fill-rule="evenodd" fill-opacity="1" /><path clip-path="url(#clip910)" d="M 0 0 M243.547 677.062 L227.679 692.999 L243.547 708.867 L239.415 713.068 L223.477 697.131 L207.54 713.068 L203.443 708.867 L219.276 692.999 L203.443 677.062 L207.54 672.86 L223.477 688.798 L239.415 672.86 L243.547 677.062 Z" fill="#000000" fill-rule="evenodd" fill-opacity="1" /><path clip-path="url(#clip910)" d="M 0 0 M252.366 709.353 L263.824 709.353 L263.824 669.805 L251.359 672.305 L251.359 665.916 L263.755 663.416 L270.769 663.416 L270.769 709.353 L282.227 709.353 L282.227 715.256 L252.366 715.256 L252.366 709.353 Z" fill="#000000" fill-rule="evenodd" fill-opacity="1" /><path clip-path="url(#clip910)" d="M 0 0 M304.831 668.034 Q299.415 668.034 296.672 673.381 Q293.963 678.694 293.963 689.388 Q293.963 700.048 296.672 705.395 Q299.415 710.707 304.831 710.707 Q310.283 710.707 312.991 705.395 Q315.734 700.048 315.734 689.388 Q315.734 678.694 312.991 673.381 Q310.283 668.034 304.831 668.034 M304.831 662.478 Q313.546 662.478 318.13 669.388 Q322.748 676.263 322.748 689.388 Q322.748 702.478 318.13 709.388 Q313.546 716.263 304.831 716.263 Q296.116 716.263 291.498 709.388 Q286.915 702.478 286.915 689.388 Q286.915 676.263 291.498 669.388 Q296.116 662.478 304.831 662.478 Z" fill="#000000" fill-rule="evenodd" fill-opacity="1" /><path clip-path="url(#clip910)" d="M 0 0 M341.791 651.43 Q345.881 652.305 348.166 655.069 Q350.48 657.834 350.48 661.896 Q350.48 668.131 346.192 671.545 Q341.903 674.958 334.004 674.958 Q331.352 674.958 328.531 674.422 Q325.738 673.915 322.748 672.871 L322.748 667.37 Q325.118 668.752 327.939 669.457 Q330.76 670.163 333.835 670.163 Q339.195 670.163 341.988 668.047 Q344.809 665.931 344.809 661.896 Q344.809 658.173 342.186 656.085 Q339.59 653.969 334.935 653.969 L330.026 653.969 L330.026 649.286 L335.161 649.286 Q339.364 649.286 341.593 647.621 Q343.822 645.929 343.822 642.769 Q343.822 639.525 341.509 637.804 Q339.223 636.055 334.935 636.055 Q332.594 636.055 329.914 636.562 Q327.233 637.07 324.017 638.142 L324.017 633.064 Q327.262 632.161 330.083 631.71 Q332.932 631.259 335.443 631.259 Q341.932 631.259 345.712 634.221 Q349.492 637.155 349.492 642.177 Q349.492 645.675 347.489 648.101 Q345.486 650.499 341.791 651.43 Z" fill="#000000" fill-rule="evenodd" fill-opacity="1" /><path clip-path="url(#clip910)" d="M 0 0 M355.219 632.02 L382.303 632.02 L382.303 634.447 L367.012 674.14 L361.059 674.14 L375.447 636.816 L355.219 636.816 L355.219 632.02 Z" fill="#000000" fill-rule="evenodd" fill-opacity="1" /><path clip-path="url(#clip910)" d="M 0 0 M176.394 346.446 Q171.672 346.446 168.894 349.675 Q166.151 352.904 166.151 358.529 Q166.151 364.119 168.894 367.383 Q171.672 370.612 176.394 370.612 Q181.117 370.612 183.86 367.383 Q186.637 364.119 186.637 358.529 Q186.637 352.904 183.86 349.675 Q181.117 346.446 176.394 346.446 M190.318 324.466 L190.318 330.855 Q187.679 329.605 184.971 328.946 Q182.297 328.286 179.658 328.286 Q172.714 328.286 169.033 332.973 Q165.388 337.661 164.867 347.14 Q166.915 344.119 170.006 342.522 Q173.096 340.89 176.811 340.89 Q184.624 340.89 189.137 345.647 Q193.686 350.369 193.686 358.529 Q193.686 366.515 188.964 371.341 Q184.242 376.168 176.394 376.168 Q167.401 376.168 162.644 369.293 Q157.888 362.383 157.888 349.293 Q157.888 337.001 163.721 329.71 Q169.554 322.383 179.38 322.383 Q182.019 322.383 184.693 322.904 Q187.401 323.425 190.318 324.466 Z" fill="#000000" fill-rule="evenodd" fill-opacity="1" /><path clip-path="url(#clip910)" d="M 0 0 M243.547 336.966 L227.679 352.904 L243.547 368.772 L239.415 372.973 L223.477 357.036 L207.54 372.973 L203.443 368.772 L219.276 352.904 L203.443 336.966 L207.54 332.765 L223.477 348.702 L239.415 332.765 L243.547 336.966 Z" fill="#000000" fill-rule="evenodd" fill-opacity="1" /><path clip-path="url(#clip910)" d="M 0 0 M252.366 369.258 L263.824 369.258 L263.824 329.71 L251.359 332.21 L251.359 325.821 L263.755 323.321 L270.769 323.321 L270.769 369.258 L282.227 369.258 L282.227 375.161 L252.366 375.161 L252.366 369.258 Z" fill="#000000" fill-rule="evenodd" fill-opacity="1" /><path clip-path="url(#clip910)" d="M 0 0 M304.831 327.939 Q299.415 327.939 296.672 333.286 Q293.963 338.598 293.963 349.293 Q293.963 359.952 296.672 365.3 Q299.415 370.612 304.831 370.612 Q310.283 370.612 312.991 365.3 Q315.734 359.952 315.734 349.293 Q315.734 338.598 312.991 333.286 Q310.283 327.939 304.831 327.939 M304.831 322.383 Q313.546 322.383 318.13 329.293 Q322.748 336.168 322.748 349.293 Q322.748 362.383 318.13 369.293 Q313.546 376.168 304.831 376.168 Q296.116 376.168 291.498 369.293 Q286.915 362.383 286.915 349.293 Q286.915 336.168 291.498 329.293 Q296.116 322.383 304.831 322.383 Z" fill="#000000" fill-rule="evenodd" fill-opacity="1" /><path clip-path="url(#clip910)" d="M 0 0 M341.791 311.335 Q345.881 312.209 348.166 314.974 Q350.48 317.739 350.48 321.801 Q350.48 328.036 346.192 331.45 Q341.903 334.863 334.004 334.863 Q331.352 334.863 328.531 334.327 Q325.738 333.819 322.748 332.776 L322.748 327.274 Q325.118 328.657 327.939 329.362 Q330.76 330.067 333.835 330.067 Q339.195 330.067 341.988 327.951 Q344.809 325.835 344.809 321.801 Q344.809 318.077 342.186 315.99 Q339.59 313.874 334.935 313.874 L330.026 313.874 L330.026 309.191 L335.161 309.191 Q339.364 309.191 341.593 307.526 Q343.822 305.833 343.822 302.674 Q343.822 299.429 341.509 297.708 Q339.223 295.959 334.935 295.959 Q332.594 295.959 329.914 296.467 Q327.233 296.975 324.017 298.047 L324.017 292.969 Q327.262 292.066 330.083 291.615 Q332.932 291.163 335.443 291.163 Q341.932 291.163 345.712 294.126 Q349.492 297.06 349.492 302.081 Q349.492 305.58 347.489 308.006 Q345.486 310.404 341.791 311.335 Z" fill="#000000" fill-rule="evenodd" fill-opacity="1" /><path clip-path="url(#clip910)" d="M 0 0 M355.219 291.925 L382.303 291.925 L382.303 294.351 L367.012 334.045 L361.059 334.045 L375.447 296.721 L355.219 296.721 L355.219 291.925 Z" fill="#000000" fill-rule="evenodd" fill-opacity="1" /><path clip-path="url(#clip910)" d="M 0 0 M81.5245 951.889 Q81.5714 951.889 83.2578 952.17 L125.84 962.85 Q128.088 963.412 130.337 965.005 Q132.632 966.551 134.6 969.034 Q136.614 971.47 137.832 975.217 Q139.097 978.918 139.097 983.181 Q139.097 989.973 137.645 992.972 Q136.239 995.923 133.241 995.923 Q130.618 995.923 129.119 994.283 Q127.667 992.644 127.667 990.77 Q127.667 988.99 128.697 988.053 Q129.728 987.116 131.04 987.116 Q132.492 987.116 133.944 988.1 Q135.443 989.083 136.005 991.051 Q136.989 987.912 136.989 983.368 Q136.989 973.765 126.824 969.643 Q126.683 969.549 126.636 969.549 L113.941 966.364 L113.848 966.504 Q114.784 967.301 115.862 968.565 Q116.892 969.783 118.157 972.407 Q119.422 975.03 119.422 977.606 Q119.422 982.994 115.3 986.694 Q111.131 990.348 104.244 990.348 Q99.2319 990.348 94.2195 988.334 Q89.1603 986.273 85.4595 983.087 Q81.7119 979.855 79.3697 975.733 Q77.0274 971.563 77.0274 967.535 Q77.0274 964.724 78.7138 962.335 Q80.3534 959.946 83.0704 958.634 Q80.8219 958.4 79.885 957.135 Q78.9481 955.824 78.9481 954.699 Q78.9481 953.434 79.6507 952.685 Q80.3066 951.889 81.5245 951.889 M87.3802 959.758 Q87.0991 959.758 86.3496 959.946 Q85.5532 960.133 84.2884 960.695 Q83.0236 961.211 81.8993 962.007 Q80.775 962.803 79.9787 964.256 Q79.1355 965.661 79.1355 967.441 Q79.1355 970.345 81.5714 973.25 Q83.9605 976.154 87.6612 978.169 Q91.2214 980.042 98.1076 981.822 Q104.994 983.556 108.507 983.556 Q111.974 983.556 114.644 982.057 Q117.314 980.558 117.314 977.325 Q117.314 973.578 113.848 969.549 Q110.24 965.38 107.149 964.677 L88.8323 960.04 Q87.7081 959.758 87.3802 959.758 Z" fill="#000000" fill-rule="evenodd" fill-opacity="1" /><path clip-path="url(#clip910)" d="M 0 0 M148.768 916.544 Q149.063 916.282 149.359 916.282 Q149.654 916.282 150.506 916.938 Q151.359 917.561 152.507 918.905 Q153.654 920.25 154.736 921.988 Q155.818 923.726 156.54 926.284 Q157.294 928.841 157.294 931.53 Q157.294 936.351 153.851 939.236 Q150.408 942.089 145.128 942.089 Q141.751 942.089 138.767 940.974 Q135.75 939.859 133.619 938.056 Q131.487 936.219 129.946 933.924 Q128.372 931.596 127.618 929.169 Q126.864 926.743 126.864 924.48 Q126.864 921.168 128.536 919.233 Q130.208 917.299 132.569 917.299 Q133.127 917.299 133.815 917.463 Q134.504 917.594 135.586 918.053 Q136.668 918.479 137.75 919.594 Q138.8 920.709 139.488 922.349 Q141.03 925.988 141.03 932.612 L141.03 936.187 Q145.26 937.236 148.014 937.236 Q149.096 937.236 150.211 937.039 Q151.293 936.842 152.67 936.318 Q154.048 935.76 154.933 934.514 Q155.786 933.235 155.786 931.399 Q155.786 930.809 155.753 930.186 Q155.72 929.53 155.359 927.89 Q154.999 926.218 154.376 924.742 Q153.753 923.267 152.408 921.398 Q151.031 919.496 149.162 917.987 Q148.473 917.463 148.473 917.102 Q148.473 916.807 148.768 916.544 M132.569 919.529 Q130.766 919.529 129.553 920.873 Q128.339 922.185 128.339 924.48 Q128.339 925.201 128.503 926.087 Q128.667 926.972 129.356 928.448 Q130.044 929.891 131.192 931.169 Q132.307 932.448 134.504 933.727 Q136.668 935.006 139.554 935.76 L139.554 933.006 Q139.554 932.055 139.554 931.366 Q139.521 930.678 139.39 929.169 Q139.259 927.628 139.029 926.513 Q138.767 925.398 138.242 923.988 Q137.718 922.578 137.029 921.693 Q136.308 920.775 135.16 920.152 Q134.012 919.529 132.569 919.529 Z" fill="#000000" fill-rule="evenodd" fill-opacity="1" /><path clip-path="url(#clip910)" d="M 0 0 M95.4375 906.299 Q79.2291 906.299 66.1594 900.256 Q60.6786 897.68 56.0878 894.072 Q51.497 890.465 49.4826 888.076 Q47.4683 885.687 47.4683 885.031 Q47.4683 884.095 48.4052 884.048 Q48.8737 884.048 50.0448 885.312 Q65.7847 900.771 95.4375 900.724 Q125.184 900.724 140.315 885.687 Q141.954 884.048 142.47 884.048 Q143.407 884.048 143.407 885.031 Q143.407 885.687 141.486 887.983 Q139.565 890.278 135.162 893.838 Q130.759 897.398 125.371 899.975 Q112.302 906.299 95.4375 906.299 Z" fill="#000000" fill-rule="evenodd" fill-opacity="1" /><path clip-path="url(#clip910)" d="M 0 0 M108.32 832.507 Q108.741 832.133 109.163 832.133 Q109.585 832.133 110.803 833.069 Q112.021 833.96 113.66 835.88 Q115.3 837.801 116.846 840.284 Q118.391 842.766 119.422 846.42 Q120.499 850.074 120.499 853.915 Q120.499 861.083 115.768 865.299 Q111.037 869.468 104.244 869.468 Q97.6392 869.468 91.3151 865.767 Q84.9442 862.066 81.0092 856.07 Q77.0274 850.074 77.0274 843.75 Q77.0274 838.738 79.3697 835.599 Q81.7119 832.46 85.2721 832.46 Q88.036 832.46 89.7224 834.053 Q91.4088 835.646 91.4088 837.801 Q91.4088 839.3 90.5656 840.33 Q89.6756 841.361 88.036 841.361 Q85.928 841.361 84.2884 839.628 Q83.6326 838.972 83.3515 838.222 Q83.0236 837.426 83.0236 836.958 Q82.9767 836.489 82.9767 835.412 Q81.1498 836.395 80.166 838.738 Q79.1355 841.033 79.1355 843.656 Q79.1355 847.545 81.8525 851.245 Q84.5226 854.946 88.7387 857.195 Q92.861 859.443 98.7166 860.895 Q104.525 862.348 107.898 862.348 Q112.536 862.348 115.44 860.193 Q118.345 858.038 118.345 853.728 Q118.345 852.885 118.298 851.995 Q118.251 851.058 117.736 848.716 Q117.22 846.327 116.33 844.219 Q115.44 842.111 113.52 839.44 Q111.552 836.723 108.882 834.569 Q107.898 833.819 107.898 833.304 Q107.898 832.882 108.32 832.507 Z" fill="#000000" fill-rule="evenodd" fill-opacity="1" /><path clip-path="url(#clip910)" d="M 0 0 M105.697 749.764 Q106.071 749.764 107.523 750.185 Q108.976 750.607 111.224 751.637 Q113.473 752.621 115.534 754.026 Q117.548 755.385 119.047 757.634 Q120.499 759.835 120.499 762.365 Q120.499 765.738 118.251 767.986 Q116.002 770.235 112.63 770.235 Q110.803 770.235 107.336 768.97 Q91.5025 763.021 85.8343 763.021 Q79.1355 763.021 79.1355 768.22 Q79.1355 771.172 80.3534 773.842 Q81.5714 776.512 83.2578 778.245 Q84.9442 779.979 86.8649 781.337 Q88.7855 782.696 90.0503 783.305 Q91.3151 783.867 91.8773 784.007 L115.019 789.769 Q116.986 790.238 117.923 790.565 Q118.86 790.893 119.656 791.783 Q120.499 792.674 120.499 794.079 Q120.499 795.25 119.797 796.093 Q119.094 796.89 117.876 796.89 Q117.689 796.89 116.705 796.655 Q115.721 796.421 114.363 796.093 Q113.004 795.765 112.208 795.625 Q105.837 793.938 104.947 793.704 L93.7979 791.034 Q88.2702 789.582 85.8343 789.582 Q79.1355 789.582 79.1355 794.782 Q79.1355 797.358 80.1192 799.794 Q81.0561 802.183 82.3678 803.823 Q83.6794 805.462 85.5064 806.961 Q87.2865 808.413 88.5044 809.163 Q89.6756 809.866 90.8467 810.428 L95.6249 811.646 Q96.9365 811.927 102.043 813.285 L110.709 815.393 Q117.174 816.892 117.782 817.22 Q119.094 817.689 119.797 818.719 Q120.499 819.75 120.499 820.78 Q120.499 821.952 119.797 822.748 Q119.094 823.544 117.876 823.544 Q117.689 823.544 116.986 823.404 Q116.283 823.263 115.3 823.029 Q114.316 822.795 113.754 822.701 L91.5962 817.127 Q87.5675 816.096 86.3027 815.862 Q84.9911 815.581 83.5389 815.581 Q79.1355 815.581 79.1355 818.579 Q79.1355 821.015 82.0398 822.607 Q84.9442 824.2 90.5656 825.559 Q92.1115 825.98 92.4394 826.261 Q92.7673 826.496 92.7673 827.198 Q92.7205 828.369 91.7836 828.369 Q91.5493 828.369 90.0503 827.995 Q88.5513 827.62 86.3027 826.917 Q84.0073 826.168 82.5083 825.371 Q81.5245 824.903 80.8687 824.481 Q80.2129 824.06 79.1823 823.216 Q78.1517 822.373 77.5896 821.108 Q77.0274 819.844 77.0274 818.298 Q77.0274 814.878 79.2291 812.348 Q81.4309 809.772 85.3658 809.444 Q77.0274 803.214 77.0274 794.5 Q77.0274 789.582 79.5102 786.631 Q81.8993 783.867 86.3027 783.539 Q77.0274 777.074 77.0274 767.893 Q77.0274 762.599 79.7913 759.742 Q82.5083 756.884 87.2865 756.884 Q89.7692 756.884 94.5006 758.149 Q99.1851 759.414 101.527 760.257 Q103.87 761.1 108.367 762.74 Q112.676 764.473 115.206 764.473 Q116.846 764.473 117.595 763.911 Q118.345 763.349 118.345 762.131 Q118.345 760.257 117.267 758.617 Q116.143 756.978 114.316 755.807 Q112.442 754.589 110.568 753.792 Q108.648 752.996 106.493 752.387 Q105.322 752.012 105.041 751.825 Q104.76 751.591 104.76 750.935 Q104.76 749.764 105.697 749.764 Z" fill="#000000" fill-rule="evenodd" fill-opacity="1" /><path clip-path="url(#clip910)" d="M 0 0 M71.5177 695.967 Q71.9112 695.574 72.4686 695.574 Q73.0261 695.574 73.4196 695.967 Q73.8131 696.361 73.8131 696.918 L73.8131 738.957 Q73.8131 739.514 73.4196 739.908 Q73.0261 740.301 72.4686 740.301 Q71.9112 740.301 71.5177 739.908 Q71.1242 739.514 71.1242 738.957 L71.1242 696.918 Q71.1242 696.361 71.5177 695.967 Z" fill="#000000" fill-rule="evenodd" fill-opacity="1" /><path clip-path="url(#clip910)" d="M 0 0 M80.2074 688.575 Q78.2071 688.575 77.2562 687.428 Q76.3052 686.28 76.3052 684.804 Q76.3052 683.263 77.3218 682.181 Q78.3055 681.066 80.0435 681.066 Q81.9126 681.066 82.9619 682.378 Q84.0112 683.657 83.7489 685.493 Q86.4378 683.886 87.6511 680.935 Q88.8643 677.951 88.8643 675.196 Q88.8643 672.311 86.3722 669.983 Q83.88 667.622 77.7808 667.622 Q72.5998 667.622 69.6158 669.655 Q66.6318 671.655 66.6318 675.623 L66.6318 678.574 Q66.6318 679.591 66.5334 679.886 Q66.435 680.181 65.8776 680.181 Q65.2217 680.181 65.0906 679.164 Q65.0906 678.148 64.8938 676.541 Q64.7626 672.639 61.3851 670.573 Q58.2372 668.704 53.7447 668.704 Q49.6458 668.704 47.9406 670.671 Q46.2027 672.606 46.2027 675.131 Q46.2027 677.492 47.1864 680.082 Q48.1702 682.673 50.3672 684.083 Q50.3672 679.918 53.7447 679.918 Q55.2203 679.918 56.2041 680.869 Q57.155 681.788 57.155 683.329 Q57.155 684.804 56.2369 685.788 Q55.2859 686.772 53.6791 686.772 Q49.8425 686.772 47.1864 683.362 Q44.5303 679.918 44.5303 674.869 Q44.5303 669.884 47.1537 666.212 Q49.777 662.506 53.8103 662.506 Q57.7781 662.506 61.0244 665.129 Q64.2708 667.753 65.6152 671.917 Q66.6318 666.802 70.1076 663.752 Q73.5507 660.703 77.7808 660.703 Q83.0275 660.703 86.8969 664.834 Q90.7335 668.966 90.7335 675 Q90.7335 680.574 87.7166 684.575 Q84.6998 688.575 80.2074 688.575 Z" fill="#000000" fill-rule="evenodd" fill-opacity="1" /><path clip-path="url(#clip910)" d="M 0 0 M55.0572 591.167 Q55.9472 591.167 56.3688 591.542 Q56.7436 591.916 56.8373 592.338 Q56.8841 592.76 56.8841 593.743 Q56.8841 595.758 57.0247 596.835 Q57.1652 597.913 57.7742 598.568 Q58.3363 599.224 58.8985 599.458 Q59.4606 599.646 60.9128 599.974 L105.697 611.217 Q112.583 612.95 117.08 619.227 Q121.53 625.504 121.53 632.39 Q121.53 638.012 118.579 641.572 Q115.581 645.085 111.084 645.085 Q108.788 645.085 107.149 644.336 Q105.509 643.586 104.76 642.462 Q104.01 641.338 103.729 640.401 Q103.401 639.417 103.401 638.621 Q103.401 637.075 104.385 635.763 Q105.369 634.405 107.43 634.405 Q109.725 634.405 111.646 636.185 Q113.566 637.965 113.566 640.635 Q113.566 641.525 113.473 641.806 Q115.768 641.104 117.22 639.277 Q118.626 637.45 119.047 635.857 Q119.422 634.217 119.422 632.671 Q119.422 628.643 115.534 624.567 Q111.646 620.492 105.041 618.852 L61.0065 607.844 Q59.5074 607.469 58.9922 607.469 Q58.0084 607.469 57.6805 608.078 Q57.3057 608.64 57.0715 610.42 Q56.8841 612.809 56.8841 615.995 Q56.8841 617.119 56.8841 617.587 Q56.8373 618.056 56.7436 618.524 Q56.6499 618.993 56.4625 619.133 Q56.2283 619.274 55.8067 619.274 Q54.9166 619.274 54.495 618.899 Q54.0266 618.524 53.9797 618.196 Q53.8861 617.868 53.8861 617.259 L54.1671 603.159 Q54.1671 601.941 54.0266 597.819 Q53.8861 593.697 53.8861 592.479 Q53.8861 591.167 55.0572 591.167 Z" fill="#000000" fill-rule="evenodd" fill-opacity="1" /><path clip-path="url(#clip910)" d="M 0 0 M50.0771 537.121 Q50.4706 536.727 51.028 536.727 Q51.5855 536.727 51.979 537.121 Q52.3725 537.514 52.3725 538.072 L52.3725 580.11 Q52.3725 580.668 51.979 581.061 Q51.5855 581.455 51.028 581.455 Q50.4706 581.455 50.0771 581.061 Q49.6836 580.668 49.6836 580.11 L49.6836 538.072 Q49.6836 537.514 50.0771 537.121 Z" fill="#000000" fill-rule="evenodd" fill-opacity="1" /><path clip-path="url(#clip910)" d="M 0 0 M29.484 529.729 L27.3854 529.729 Q27.3854 521.662 23.0897 517.498 Q23.0897 516.35 23.352 516.153 Q23.6144 515.957 24.8277 515.957 L62.505 515.957 Q64.5053 515.957 65.1283 514.973 Q65.7514 513.989 65.7514 509.693 L65.7514 507.562 L67.8172 507.562 Q67.6205 509.923 67.6205 518.449 Q67.6205 526.974 67.8172 529.303 L65.7514 529.303 L65.7514 527.171 Q65.7514 522.941 65.1611 521.925 Q64.5381 520.908 62.505 520.908 L27.7133 520.908 Q29.484 524.417 29.484 529.729 Z" fill="#000000" fill-rule="evenodd" fill-opacity="1" /><path clip-path="url(#clip910)" d="M 0 0 M142.47 486.239 Q142.001 486.239 140.83 485.021 Q125.09 469.562 95.4375 469.562 Q65.691 469.562 50.6538 484.412 Q48.9205 486.239 48.4052 486.239 Q47.4683 486.239 47.4683 485.302 Q47.4683 484.646 49.3889 482.351 Q51.3096 480.009 55.713 476.495 Q60.1164 472.935 65.5036 470.312 Q78.5733 463.988 95.4375 463.988 Q111.646 463.988 124.716 470.031 Q130.196 472.607 134.787 476.214 Q139.378 479.821 141.392 482.21 Q143.407 484.599 143.407 485.302 Q143.407 486.239 142.47 486.239 Z" fill="#000000" fill-rule="evenodd" fill-opacity="1" /><polyline clip-path="url(#clip912)" style="stroke:#009af9; stroke-width:4; stroke-opacity:1; fill:none" points="
  473.051,1359.86 477.614,1359.86 482.176,1359.86 486.738,1359.86 491.301,1359.86 495.863,1359.86 500.426,1359.86 504.988,1359.86 509.55,1359.86 514.113,1359.86 
  518.675,1359.86 523.238,1359.86 527.8,1359.86 532.362,1359.86 536.925,1359.86 541.487,1359.86 546.049,1359.86 550.612,1359.86 555.174,1359.86 559.737,1359.86 
  564.299,1359.86 568.861,1359.86 573.424,1359.86 577.986,1359.86 582.549,1359.86 587.111,1359.86 591.673,1359.86 596.236,1359.86 600.798,1359.86 605.361,1359.86 
  609.923,1359.86 614.485,1359.86 619.048,1359.86 623.61,1359.86 628.173,1359.86 632.735,1359.86 637.297,1359.86 641.86,1359.86 646.422,1359.86 650.984,1359.86 
  655.547,1359.86 660.109,1359.86 664.672,1359.86 669.234,1359.86 673.796,1359.86 678.359,1359.86 682.921,1359.86 687.484,1359.86 692.046,1359.86 696.608,1359.86 
  701.171,1359.86 705.733,1359.86 710.296,1359.86 714.858,1359.86 719.42,1359.86 723.983,1359.86 728.545,1359.86 733.107,1359.86 737.67,1359.86 742.232,1359.86 
  746.795,1359.86 751.357,1359.86 755.919,1359.86 760.482,1359.86 765.044,1359.86 769.607,1359.86 774.169,1359.86 778.731,1359.86 783.294,1359.86 787.856,1359.86 
  792.419,1359.86 796.981,1359.86 801.543,1359.86 806.106,1359.86 810.668,1359.86 815.23,1359.86 819.793,1359.86 824.355,1359.86 828.918,1359.86 833.48,1359.86 
  838.042,1359.86 842.605,1359.86 847.167,1359.86 851.73,1359.86 856.292,1359.86 860.854,1359.86 865.417,1359.85 869.979,1359.85 874.542,1359.85 879.104,1359.85 
  883.666,1359.85 888.229,1359.85 892.791,1359.85 897.354,1359.85 901.916,1359.85 906.478,1359.85 911.041,1359.85 915.603,1359.85 920.165,1359.85 924.728,1359.85 
  929.29,1359.85 933.853,1359.85 938.415,1359.85 942.977,1359.85 947.54,1359.85 952.102,1359.85 956.665,1359.85 961.227,1359.85 965.789,1359.84 970.352,1359.84 
  974.914,1359.84 979.477,1359.84 984.039,1359.83 988.601,1359.83 993.164,1359.83 997.726,1359.82 1002.29,1359.81 1006.85,1359.81 1011.41,1359.8 1015.98,1359.79 
  1020.54,1359.77 1025.1,1359.76 1029.66,1359.74 1034.23,1359.72 1038.79,1359.7 1043.35,1359.67 1047.91,1359.64 1052.47,1359.61 1057.04,1359.57 1061.6,1359.52 
  1066.16,1359.47 1070.72,1359.4 1075.29,1359.33 1079.85,1359.25 1084.41,1359.16 1088.97,1359.05 1093.54,1358.93 1098.1,1358.79 1102.66,1358.63 1107.22,1358.45 
  1111.79,1358.25 1116.35,1358.01 1120.91,1357.75 1125.47,1357.45 1130.04,1357.12 1134.6,1356.74 1139.16,1356.32 1143.72,1355.84 1148.28,1355.31 1152.85,1354.71 
  1157.41,1354.04 1161.97,1353.29 1166.53,1352.46 1171.1,1351.53 1175.66,1350.5 1180.22,1349.36 1184.78,1348.09 1189.35,1346.68 1193.91,1345.13 1198.47,1343.42 
  1203.03,1341.54 1207.6,1339.46 1212.16,1337.19 1216.72,1334.69 1221.28,1331.96 1225.85,1328.97 1230.41,1325.71 1234.97,1322.16 1239.53,1318.3 1244.1,1314.1 
  1248.66,1309.55 1253.22,1304.62 1257.78,1299.29 1262.34,1293.54 1266.91,1287.34 1271.47,1280.67 1276.03,1273.5 1280.59,1265.82 1285.16,1257.59 1289.72,1248.79 
  1294.28,1239.4 1298.84,1229.4 1303.41,1218.77 1307.97,1207.47 1312.53,1195.49 1317.09,1182.82 1321.66,1169.43 1326.22,1155.31 1330.78,1140.45 1335.34,1124.82 
  1339.91,1108.43 1344.47,1091.26 1349.03,1073.32 1353.59,1054.59 1358.15,1035.09 1362.72,1014.82 1367.28,993.779 1371.84,971.991 1376.4,949.469 1380.97,926.234 
  1385.53,902.312 1390.09,877.732 1394.65,852.528 1399.22,826.738 1403.78,800.405 1408.34,773.576 1412.9,746.303 1417.47,718.641 1422.03,690.651 1426.59,662.396 
  1431.15,633.945 1435.72,605.369 1440.28,576.743 1444.84,548.145 1449.4,519.656 1453.97,491.359 1458.53,463.34 1463.09,435.685 1467.65,408.484 1472.21,381.824 
  1476.78,355.796 1481.34,330.487 1485.9,305.988 1490.46,282.384 1495.03,259.762 1499.59,238.205 1504.15,217.792 1508.71,198.603 1513.28,180.709 1517.84,164.181 
  1522.4,149.084 1526.96,135.476 1531.53,123.413 1536.09,112.942 1540.65,104.107 1545.21,96.9426 1549.78,91.4784 1554.34,87.7367 1558.9,85.733 1563.46,85.4755 
  1568.02,86.9652 1572.59,90.1959 1577.15,95.1545 1581.71,101.821 1586.27,110.167 1590.84,120.16 1595.4,131.758 1599.96,144.916 1604.52,159.581 1609.09,175.694 
  1613.65,193.192 1618.21,212.007 1622.77,232.067 1627.34,253.295 1631.9,275.612 1636.46,298.935 1641.02,323.18 1645.59,348.259 1650.15,374.084 1654.71,400.567 
  1659.27,427.618 1663.84,455.149 1668.4,483.069 1672.96,511.293 1677.52,539.734 1682.08,568.309 1686.65,596.935 1691.21,625.534 1695.77,654.029 1700.33,682.349 
  1704.9,710.424 1709.46,738.189 1714.02,765.583 1718.58,792.548 1723.15,819.033 1727.71,844.987 1732.27,870.368 1736.83,895.135 1741.4,919.255 1745.96,942.695 
  1750.52,965.429 1755.08,987.436 1759.65,1008.7 1764.21,1029.2 1768.77,1048.93 1773.33,1067.88 1777.89,1086.06 1782.46,1103.45 1787.02,1120.07 1791.58,1135.92 
  1796.14,1151.01 1800.71,1165.35 1805.27,1178.95 1809.83,1191.83 1814.39,1204.01 1818.96,1215.51 1823.52,1226.34 1828.08,1236.52 1832.64,1246.09 1837.21,1255.06 
  1841.77,1263.45 1846.33,1271.29 1850.89,1278.61 1855.46,1285.42 1860.02,1291.76 1864.58,1297.64 1869.14,1303.09 1873.7,1308.13 1878.27,1312.8 1882.83,1317.1 
  1887.39,1321.06 1891.95,1324.7 1896.52,1328.04 1901.08,1331.11 1905.64,1333.91 1910.2,1336.48 1914.77,1338.81 1919.33,1340.95 1923.89,1342.88 1928.45,1344.65 
  1933.02,1346.24 1937.58,1347.69 1942.14,1348.99 1946.7,1350.18 1951.27,1351.24 1955.83,1352.2 1960.39,1353.06 1964.95,1353.83 1969.52,1354.52 1974.08,1355.14 
  1978.64,1355.69 1983.2,1356.18 1987.76,1356.62 1992.33,1357.01 1996.89,1357.36 2001.45,1357.67 2006.01,1357.94 2010.58,1358.18 2015.14,1358.39 2019.7,1358.58 
  2024.26,1358.74 2028.83,1358.89 2033.39,1359.02 2037.95,1359.13 2042.51,1359.23 2047.08,1359.31 2051.64,1359.38 2056.2,1359.45 2060.76,1359.51 2065.33,1359.55 
  2069.89,1359.6 2074.45,1359.63 2079.01,1359.67 2083.57,1359.69 2088.14,1359.72 2092.7,1359.74 2097.26,1359.75 2101.82,1359.77 2106.39,1359.78 2110.95,1359.79 
  2115.51,1359.8 2120.07,1359.81 2124.64,1359.82 2129.2,1359.82 2133.76,1359.83 2138.32,1359.83 2142.89,1359.84 2147.45,1359.84 2152.01,1359.84 2156.57,1359.84 
  2161.14,1359.85 2165.7,1359.85 2170.26,1359.85 2174.82,1359.85 2179.39,1359.85 2183.95,1359.85 2188.51,1359.85 2193.07,1359.85 2197.63,1359.85 2202.2,1359.85 
  2206.76,1359.85 2211.32,1359.85 2215.88,1359.85 2220.45,1359.85 2225.01,1359.85 2229.57,1359.85 2234.13,1359.85 2238.7,1359.85 2243.26,1359.85 2247.82,1359.85 
  2252.38,1359.85 2256.95,1359.85 2261.51,1359.85 2266.07,1359.86 2270.63,1359.86 2275.2,1359.86 2279.76,1359.86 2284.32,1359.86 2288.88,1359.86 2293.44,1359.86 
  2298.01,1359.86 
  "/>
</svg>
