<?xml version="1.0" encoding="utf-8"?>
<svg xmlns="http://www.w3.org/2000/svg" xmlns:xlink="http://www.w3.org/1999/xlink" width="600" height="400" viewBox="0 0 2400 1600">
<defs>
  <clipPath id="clip210">
    <rect x="0" y="0" width="2400" height="1600"/>
  </clipPath>
</defs>
<path clip-path="url(#clip210)" d="
M0 1600 L2400 1600 L2400 0 L0 0  Z
  " fill="#ffffff" fill-rule="evenodd" fill-opacity="1"/>
<defs>
  <clipPath id="clip211">
    <rect x="480" y="0" width="1681" height="1600"/>
  </clipPath>
</defs>
<defs>
  <clipPath id="clip212">
    <rect x="469" y="47" width="1884" height="1352"/>
  </clipPath>
</defs>
<path clip-path="url(#clip210)" d="
M270.529 1398.09 L2352.76 1398.09 L2352.76 47.2441 L270.529 47.2441  Z
  " fill="#ffffff" fill-rule="evenodd" fill-opacity="1"/>
<defs>
  <clipPath id="clip213">
    <rect x="270" y="47" width="2083" height="1352"/>
  </clipPath>
</defs>
<polyline clip-path="url(#clip213)" style="stroke:#000000; stroke-width:2; stroke-opacity:0.1; fill:none" points="
  551.519,1398.09 551.519,47.2441 
  "/>
<polyline clip-path="url(#clip213)" style="stroke:#000000; stroke-width:2; stroke-opacity:0.1; fill:none" points="
  931.581,1398.09 931.581,47.2441 
  "/>
<polyline clip-path="url(#clip213)" style="stroke:#000000; stroke-width:2; stroke-opacity:0.1; fill:none" points="
  1311.64,1398.09 1311.64,47.2441 
  "/>
<polyline clip-path="url(#clip213)" style="stroke:#000000; stroke-width:2; stroke-opacity:0.1; fill:none" points="
  1691.7,1398.09 1691.7,47.2441 
  "/>
<polyline clip-path="url(#clip213)" style="stroke:#000000; stroke-width:2; stroke-opacity:0.1; fill:none" points="
  2071.77,1398.09 2071.77,47.2441 
  "/>
<polyline clip-path="url(#clip210)" style="stroke:#000000; stroke-width:4; stroke-opacity:1; fill:none" points="
  270.529,1398.09 2352.76,1398.09 
  "/>
<polyline clip-path="url(#clip210)" style="stroke:#000000; stroke-width:4; stroke-opacity:1; fill:none" points="
  551.519,1398.09 551.519,1381.88 
  "/>
<polyline clip-path="url(#clip210)" style="stroke:#000000; stroke-width:4; stroke-opacity:1; fill:none" points="
  931.581,1398.09 931.581,1381.88 
  "/>
<polyline clip-path="url(#clip210)" style="stroke:#000000; stroke-width:4; stroke-opacity:1; fill:none" points="
  1311.64,1398.09 1311.64,1381.88 
  "/>
<polyline clip-path="url(#clip210)" style="stroke:#000000; stroke-width:4; stroke-opacity:1; fill:none" points="
  1691.7,1398.09 1691.7,1381.88 
  "/>
<polyline clip-path="url(#clip210)" style="stroke:#000000; stroke-width:4; stroke-opacity:1; fill:none" points="
  2071.77,1398.09 2071.77,1381.88 
  "/>
<path clip-path="url(#clip210)" d="M 0 0 M482.474 1454.25 L526.988 1454.25 L526.988 1460.15 L482.474 1460.15 L482.474 1454.25 Z" fill="#000000" fill-rule="evenodd" fill-opacity="1" /><path clip-path="url(#clip210)" d="M 0 0 M549.592 1432.27 Q544.175 1432.27 541.432 1437.62 Q538.724 1442.93 538.724 1453.63 Q538.724 1464.29 541.432 1469.63 Q544.175 1474.95 549.592 1474.95 Q555.043 1474.95 557.751 1469.63 Q560.494 1464.29 560.494 1453.63 Q560.494 1442.93 557.751 1437.62 Q555.043 1432.27 549.592 1432.27 M549.592 1426.72 Q558.307 1426.72 562.89 1433.63 Q567.508 1440.5 567.508 1453.63 Q567.508 1466.72 562.89 1473.63 Q558.307 1480.5 549.592 1480.5 Q540.876 1480.5 536.258 1473.63 Q531.675 1466.72 531.675 1453.63 Q531.675 1440.5 536.258 1433.63 Q540.876 1426.72 549.592 1426.72 Z" fill="#000000" fill-rule="evenodd" fill-opacity="1" /><path clip-path="url(#clip210)" d="M 0 0 M575.112 1470.68 L582.439 1470.68 L582.439 1479.49 L575.112 1479.49 L575.112 1470.68 Z" fill="#000000" fill-rule="evenodd" fill-opacity="1" /><path clip-path="url(#clip210)" d="M 0 0 M596.084 1473.59 L620.563 1473.59 L620.563 1479.49 L587.647 1479.49 L587.647 1473.59 Q591.64 1469.46 598.515 1462.52 Q605.425 1455.54 607.196 1453.52 Q610.564 1449.74 611.883 1447.13 Q613.237 1444.49 613.237 1441.96 Q613.237 1437.83 610.32 1435.22 Q607.439 1432.62 602.786 1432.62 Q599.487 1432.62 595.807 1433.77 Q592.161 1434.91 587.994 1437.24 L587.994 1430.15 Q592.23 1428.45 595.911 1427.59 Q599.591 1426.72 602.647 1426.72 Q610.702 1426.72 615.494 1430.74 Q620.286 1434.77 620.286 1441.51 Q620.286 1444.7 619.07 1447.58 Q617.89 1450.43 614.73 1454.32 Q613.862 1455.33 609.209 1460.15 Q604.557 1464.95 596.084 1473.59 Z" fill="#000000" fill-rule="evenodd" fill-opacity="1" /><path clip-path="url(#clip210)" d="M 0 0 M862.258 1454.25 L906.772 1454.25 L906.772 1460.15 L862.258 1460.15 L862.258 1454.25 Z" fill="#000000" fill-rule="evenodd" fill-opacity="1" /><path clip-path="url(#clip210)" d="M 0 0 M929.376 1432.27 Q923.959 1432.27 921.216 1437.62 Q918.508 1442.93 918.508 1453.63 Q918.508 1464.29 921.216 1469.63 Q923.959 1474.95 929.376 1474.95 Q934.827 1474.95 937.535 1469.63 Q940.278 1464.29 940.278 1453.63 Q940.278 1442.93 937.535 1437.62 Q934.827 1432.27 929.376 1432.27 M929.376 1426.72 Q938.091 1426.72 942.674 1433.63 Q947.292 1440.5 947.292 1453.63 Q947.292 1466.72 942.674 1473.63 Q938.091 1480.5 929.376 1480.5 Q920.661 1480.5 916.043 1473.63 Q911.459 1466.72 911.459 1453.63 Q911.459 1440.5 916.043 1433.63 Q920.661 1426.72 929.376 1426.72 Z" fill="#000000" fill-rule="evenodd" fill-opacity="1" /><path clip-path="url(#clip210)" d="M 0 0 M954.896 1470.68 L962.223 1470.68 L962.223 1479.49 L954.896 1479.49 L954.896 1470.68 Z" fill="#000000" fill-rule="evenodd" fill-opacity="1" /><path clip-path="url(#clip210)" d="M 0 0 M971.042 1473.59 L982.5 1473.59 L982.5 1434.04 L970.035 1436.54 L970.035 1430.15 L982.431 1427.65 L989.445 1427.65 L989.445 1473.59 L1000.9 1473.59 L1000.9 1479.49 L971.042 1479.49 L971.042 1473.59 Z" fill="#000000" fill-rule="evenodd" fill-opacity="1" /><path clip-path="url(#clip210)" d="M 0 0 M1283.92 1432.27 Q1278.5 1432.27 1275.76 1437.62 Q1273.05 1442.93 1273.05 1453.63 Q1273.05 1464.29 1275.76 1469.63 Q1278.5 1474.95 1283.92 1474.95 Q1289.37 1474.95 1292.08 1469.63 Q1294.82 1464.29 1294.82 1453.63 Q1294.82 1442.93 1292.08 1437.62 Q1289.37 1432.27 1283.92 1432.27 M1283.92 1426.72 Q1292.63 1426.72 1297.22 1433.63 Q1301.83 1440.5 1301.83 1453.63 Q1301.83 1466.72 1297.22 1473.63 Q1292.63 1480.5 1283.92 1480.5 Q1275.2 1480.5 1270.58 1473.63 Q1266 1466.72 1266 1453.63 Q1266 1440.5 1270.58 1433.63 Q1275.2 1426.72 1283.92 1426.72 Z" fill="#000000" fill-rule="evenodd" fill-opacity="1" /><path clip-path="url(#clip210)" d="M 0 0 M1309.44 1470.68 L1316.76 1470.68 L1316.76 1479.49 L1309.44 1479.49 L1309.44 1470.68 Z" fill="#000000" fill-rule="evenodd" fill-opacity="1" /><path clip-path="url(#clip210)" d="M 0 0 M1339.37 1432.27 Q1333.95 1432.27 1331.21 1437.62 Q1328.5 1442.93 1328.5 1453.63 Q1328.5 1464.29 1331.21 1469.63 Q1333.95 1474.95 1339.37 1474.95 Q1344.82 1474.95 1347.53 1469.63 Q1350.27 1464.29 1350.27 1453.63 Q1350.27 1442.93 1347.53 1437.62 Q1344.82 1432.27 1339.37 1432.27 M1339.37 1426.72 Q1348.08 1426.72 1352.67 1433.63 Q1357.28 1440.5 1357.28 1453.63 Q1357.28 1466.72 1352.67 1473.63 Q1348.08 1480.5 1339.37 1480.5 Q1330.65 1480.5 1326.03 1473.63 Q1321.45 1466.72 1321.45 1453.63 Q1321.45 1440.5 1326.03 1433.63 Q1330.65 1426.72 1339.37 1426.72 Z" fill="#000000" fill-rule="evenodd" fill-opacity="1" /><path clip-path="url(#clip210)" d="M 0 0 M1664.9 1432.27 Q1659.48 1432.27 1656.74 1437.62 Q1654.03 1442.93 1654.03 1453.63 Q1654.03 1464.29 1656.74 1469.63 Q1659.48 1474.95 1664.9 1474.95 Q1670.35 1474.95 1673.06 1469.63 Q1675.8 1464.29 1675.8 1453.63 Q1675.8 1442.93 1673.06 1437.62 Q1670.35 1432.27 1664.9 1432.27 M1664.9 1426.72 Q1673.61 1426.72 1678.2 1433.63 Q1682.82 1440.5 1682.82 1453.63 Q1682.82 1466.72 1678.2 1473.63 Q1673.61 1480.5 1664.9 1480.5 Q1656.18 1480.5 1651.57 1473.63 Q1646.98 1466.72 1646.98 1453.63 Q1646.98 1440.5 1651.57 1433.63 Q1656.18 1426.72 1664.9 1426.72 Z" fill="#000000" fill-rule="evenodd" fill-opacity="1" /><path clip-path="url(#clip210)" d="M 0 0 M1690.42 1470.68 L1697.75 1470.68 L1697.75 1479.49 L1690.42 1479.49 L1690.42 1470.68 Z" fill="#000000" fill-rule="evenodd" fill-opacity="1" /><path clip-path="url(#clip210)" d="M 0 0 M1706.57 1473.59 L1718.02 1473.59 L1718.02 1434.04 L1705.56 1436.54 L1705.56 1430.15 L1717.95 1427.65 L1724.97 1427.65 L1724.97 1473.59 L1736.43 1473.59 L1736.43 1479.49 L1706.57 1479.49 L1706.57 1473.59 Z" fill="#000000" fill-rule="evenodd" fill-opacity="1" /><path clip-path="url(#clip210)" d="M 0 0 M2045.24 1432.27 Q2039.82 1432.27 2037.08 1437.62 Q2034.37 1442.93 2034.37 1453.63 Q2034.37 1464.29 2037.08 1469.63 Q2039.82 1474.95 2045.24 1474.95 Q2050.69 1474.95 2053.4 1469.63 Q2056.14 1464.29 2056.14 1453.63 Q2056.14 1442.93 2053.4 1437.62 Q2050.69 1432.27 2045.24 1432.27 M2045.24 1426.72 Q2053.95 1426.72 2058.54 1433.63 Q2063.16 1440.5 2063.16 1453.63 Q2063.16 1466.72 2058.54 1473.63 Q2053.95 1480.5 2045.24 1480.5 Q2036.52 1480.5 2031.91 1473.63 Q2027.32 1466.72 2027.32 1453.63 Q2027.32 1440.5 2031.91 1433.63 Q2036.52 1426.72 2045.24 1426.72 Z" fill="#000000" fill-rule="evenodd" fill-opacity="1" /><path clip-path="url(#clip210)" d="M 0 0 M2070.76 1470.68 L2078.09 1470.68 L2078.09 1479.49 L2070.76 1479.49 L2070.76 1470.68 Z" fill="#000000" fill-rule="evenodd" fill-opacity="1" /><path clip-path="url(#clip210)" d="M 0 0 M2091.73 1473.59 L2116.21 1473.59 L2116.21 1479.49 L2083.29 1479.49 L2083.29 1473.59 Q2087.29 1469.46 2094.16 1462.52 Q2101.07 1455.54 2102.84 1453.52 Q2106.21 1449.74 2107.53 1447.13 Q2108.88 1444.49 2108.88 1441.96 Q2108.88 1437.83 2105.97 1435.22 Q2103.09 1432.62 2098.43 1432.62 Q2095.13 1432.62 2091.45 1433.77 Q2087.81 1434.91 2083.64 1437.24 L2083.64 1430.15 Q2087.88 1428.45 2091.56 1427.59 Q2095.24 1426.72 2098.29 1426.72 Q2106.35 1426.72 2111.14 1430.74 Q2115.93 1434.77 2115.93 1441.51 Q2115.93 1444.7 2114.72 1447.58 Q2113.54 1450.43 2110.38 1454.32 Q2109.51 1455.33 2104.86 1460.15 Q2100.2 1464.95 2091.73 1473.59 Z" fill="#000000" fill-rule="evenodd" fill-opacity="1" /><path clip-path="url(#clip210)" d="M 0 0 M1265.64 1497.4 Q1265.64 1499.08 1264.24 1499.08 Q1261.78 1499.16 1260.1 1499.65 Q1258.42 1500.1 1257.44 1501 Q1256.5 1501.9 1255.96 1502.89 Q1255.47 1503.83 1255.14 1505.27 L1247.68 1535.06 Q1245.55 1543.47 1238.67 1549.57 Q1231.78 1555.64 1223.95 1555.64 Q1219.48 1555.64 1215.75 1553.8 Q1212.06 1551.95 1209.77 1548.22 Q1207.47 1544.49 1207.47 1539.53 Q1207.47 1537.15 1208.09 1534.65 L1213.17 1513.91 L1215.06 1506.54 Q1216.45 1501.08 1216.45 1500.59 Q1216.45 1499.81 1215.96 1499.61 Q1215.51 1499.36 1214.19 1499.24 L1211 1499.08 Q1210.01 1499.08 1209.6 1499.03 Q1209.23 1498.99 1208.95 1498.79 Q1208.66 1498.58 1208.66 1498.13 Q1208.66 1497.56 1208.78 1497.19 Q1208.95 1496.78 1209.23 1496.66 Q1209.52 1496.53 1209.73 1496.49 Q1209.93 1496.45 1210.26 1496.45 L1221.08 1496.7 L1231.82 1496.45 Q1233.01 1496.45 1233.01 1497.4 Q1233.01 1498.58 1232.48 1498.83 Q1231.94 1499.08 1230.14 1499.08 Q1227.07 1499.08 1225.67 1499.49 Q1224.32 1499.85 1223.91 1500.51 Q1223.54 1501.13 1223.09 1502.93 L1214.93 1535.6 Q1214.52 1537.24 1214.28 1538.88 Q1214.07 1540.47 1214.07 1541.29 L1214.03 1542.11 Q1214.03 1547.32 1216.9 1550.19 Q1219.81 1553.06 1224.28 1553.06 Q1230.84 1553.06 1236.94 1547.85 Q1243.09 1542.65 1245.18 1534.49 L1252.72 1504.53 Q1252.97 1503.79 1252.97 1502.76 Q1252.97 1501.13 1251.74 1500.14 Q1250.55 1499.12 1247.27 1499.08 Q1245.76 1499.08 1245.76 1498.13 Q1245.76 1497.35 1246.04 1496.99 Q1246.37 1496.58 1246.62 1496.53 Q1246.9 1496.45 1247.27 1496.45 Q1248.67 1496.45 1251.62 1496.58 Q1254.57 1496.7 1256 1496.7 Q1257.44 1496.7 1260.31 1496.58 Q1263.18 1496.45 1264.57 1496.45 Q1265.06 1496.45 1265.31 1496.7 Q1265.6 1496.9 1265.64 1497.15 L1265.64 1497.4 Z" fill="#000000" fill-rule="evenodd" fill-opacity="1" /><path clip-path="url(#clip210)" d="M 0 0 M1264.21 1532.81 Q1264.21 1518.63 1269.5 1507.19 Q1271.76 1502.4 1274.91 1498.38 Q1278.07 1494.36 1280.16 1492.6 Q1282.25 1490.84 1282.82 1490.84 Q1283.64 1490.84 1283.68 1491.66 Q1283.68 1492.07 1282.58 1493.09 Q1269.05 1506.86 1269.09 1532.81 Q1269.09 1558.84 1282.25 1572.08 Q1283.68 1573.51 1283.68 1573.96 Q1283.68 1574.78 1282.82 1574.78 Q1282.25 1574.78 1280.24 1573.1 Q1278.23 1571.42 1275.12 1567.57 Q1272 1563.72 1269.75 1559 Q1264.21 1547.57 1264.21 1532.81 Z" fill="#000000" fill-rule="evenodd" fill-opacity="1" /><path clip-path="url(#clip210)" d="M 0 0 M1328.37 1544.08 Q1328.7 1544.45 1328.7 1544.82 Q1328.7 1545.19 1327.88 1546.25 Q1327.1 1547.32 1325.42 1548.75 Q1323.74 1550.19 1321.57 1551.54 Q1319.4 1552.89 1316.2 1553.8 Q1313 1554.74 1309.64 1554.74 Q1303.62 1554.74 1300.01 1550.44 Q1296.44 1546.13 1296.44 1539.53 Q1296.44 1535.31 1297.84 1531.58 Q1299.23 1527.81 1301.48 1525.15 Q1303.78 1522.48 1306.65 1520.55 Q1309.56 1518.59 1312.59 1517.64 Q1315.63 1516.7 1318.45 1516.7 Q1322.59 1516.7 1325.01 1518.79 Q1327.43 1520.88 1327.43 1523.83 Q1327.43 1524.53 1327.23 1525.39 Q1327.06 1526.25 1326.49 1527.6 Q1325.95 1528.96 1324.56 1530.31 Q1323.17 1531.62 1321.12 1532.48 Q1316.57 1534.41 1308.29 1534.41 L1303.82 1534.41 Q1302.51 1539.7 1302.51 1543.14 Q1302.51 1544.49 1302.75 1545.89 Q1303 1547.24 1303.66 1548.96 Q1304.35 1550.68 1305.91 1551.79 Q1307.51 1552.85 1309.8 1552.85 Q1310.54 1552.85 1311.32 1552.81 Q1312.14 1552.77 1314.19 1552.32 Q1316.28 1551.87 1318.13 1551.09 Q1319.97 1550.31 1322.31 1548.63 Q1324.68 1546.91 1326.57 1544.57 Q1327.23 1543.71 1327.68 1543.71 Q1328.04 1543.71 1328.37 1544.08 M1324.64 1523.83 Q1324.64 1521.58 1322.96 1520.06 Q1321.32 1518.55 1318.45 1518.55 Q1317.55 1518.55 1316.44 1518.75 Q1315.34 1518.96 1313.49 1519.82 Q1311.69 1520.68 1310.09 1522.11 Q1308.49 1523.51 1306.89 1526.25 Q1305.3 1528.96 1304.35 1532.56 L1307.8 1532.56 Q1308.98 1532.56 1309.85 1532.56 Q1310.71 1532.52 1312.59 1532.36 Q1314.52 1532.2 1315.91 1531.91 Q1317.31 1531.58 1319.07 1530.92 Q1320.83 1530.27 1321.94 1529.41 Q1323.09 1528.51 1323.86 1527.07 Q1324.64 1525.64 1324.64 1523.83 Z" fill="#000000" fill-rule="evenodd" fill-opacity="1" /><path clip-path="url(#clip210)" d="M 0 0 M1395.01 1497.48 Q1394.93 1498.99 1393.9 1499.08 Q1392.34 1499.16 1391.4 1499.36 Q1390.46 1499.53 1388.98 1500.14 Q1387.51 1500.76 1386.07 1502.23 Q1384.64 1503.71 1383.16 1506.04 L1352.95 1554.12 Q1352.42 1555.03 1351.97 1555.31 Q1351.56 1555.64 1350.62 1555.64 Q1349.76 1555.64 1349.43 1555.27 Q1349.1 1554.94 1348.94 1553.71 L1342.3 1501.9 Q1342.17 1500.96 1342.05 1500.55 Q1341.93 1500.14 1341.43 1499.73 Q1340.98 1499.32 1340 1499.2 Q1339.02 1499.08 1337.25 1499.08 Q1336.43 1499.08 1336.07 1499.03 Q1335.74 1498.99 1335.45 1498.79 Q1335.16 1498.54 1335.16 1498.05 Q1335.16 1497.31 1335.45 1496.94 Q1335.78 1496.53 1336.02 1496.49 Q1336.31 1496.45 1336.76 1496.45 Q1337.46 1496.45 1338.98 1496.53 Q1340.49 1496.62 1341.27 1496.62 Q1342.01 1496.62 1343.57 1496.66 Q1345.12 1496.7 1345.9 1496.7 Q1347.62 1496.7 1351.11 1496.58 Q1354.63 1496.45 1356.31 1496.45 Q1357.46 1496.45 1357.46 1497.4 Q1357.46 1498.54 1356.97 1498.83 Q1356.48 1499.08 1355.37 1499.08 Q1352.58 1499.08 1351.07 1499.77 Q1349.59 1500.47 1349.59 1501.58 L1355.29 1546.01 L1381.07 1505.02 Q1382.34 1503.09 1382.34 1501.82 Q1382.34 1499.36 1378.45 1499.08 Q1377.14 1499.08 1377.14 1498.05 Q1377.14 1497.31 1377.46 1496.94 Q1377.79 1496.53 1378.04 1496.49 Q1378.33 1496.45 1378.74 1496.45 Q1380.09 1496.45 1382.83 1496.58 Q1385.62 1496.7 1387.01 1496.7 Q1388.16 1496.7 1390.5 1496.58 Q1392.84 1496.45 1393.9 1496.45 Q1395.01 1496.45 1395.01 1497.48 Z" fill="#000000" fill-rule="evenodd" fill-opacity="1" /><path clip-path="url(#clip210)" d="M 0 0 M1383.59 1573.96 Q1383.59 1573.55 1384.65 1572.53 Q1398.18 1558.76 1398.18 1532.81 Q1398.18 1506.78 1385.18 1493.62 Q1383.59 1492.11 1383.59 1491.66 Q1383.59 1490.84 1384.41 1490.84 Q1384.98 1490.84 1386.99 1492.52 Q1389.04 1494.2 1392.11 1498.05 Q1395.23 1501.9 1397.52 1506.62 Q1403.06 1518.05 1403.06 1532.81 Q1403.06 1546.99 1397.77 1558.43 Q1395.51 1563.22 1392.36 1567.24 Q1389.2 1571.26 1387.11 1573.02 Q1385.02 1574.78 1384.41 1574.78 Q1383.59 1574.78 1383.59 1573.96 Z" fill="#000000" fill-rule="evenodd" fill-opacity="1" /><polyline clip-path="url(#clip213)" style="stroke:#000000; stroke-width:2; stroke-opacity:0.1; fill:none" points="
  270.529,1225.84 2352.76,1225.84 
  "/>
<polyline clip-path="url(#clip213)" style="stroke:#000000; stroke-width:2; stroke-opacity:0.1; fill:none" points="
  270.529,959.706 2352.76,959.706 
  "/>
<polyline clip-path="url(#clip213)" style="stroke:#000000; stroke-width:2; stroke-opacity:0.1; fill:none" points="
  270.529,693.57 2352.76,693.57 
  "/>
<polyline clip-path="url(#clip213)" style="stroke:#000000; stroke-width:2; stroke-opacity:0.1; fill:none" points="
  270.529,427.435 2352.76,427.435 
  "/>
<polyline clip-path="url(#clip213)" style="stroke:#000000; stroke-width:2; stroke-opacity:0.1; fill:none" points="
  270.529,161.3 2352.76,161.3 
  "/>
<polyline clip-path="url(#clip210)" style="stroke:#000000; stroke-width:4; stroke-opacity:1; fill:none" points="
  270.529,1398.09 270.529,47.2441 
  "/>
<polyline clip-path="url(#clip210)" style="stroke:#000000; stroke-width:4; stroke-opacity:1; fill:none" points="
  270.529,1225.84 295.516,1225.84 
  "/>
<polyline clip-path="url(#clip210)" style="stroke:#000000; stroke-width:4; stroke-opacity:1; fill:none" points="
  270.529,959.706 295.516,959.706 
  "/>
<polyline clip-path="url(#clip210)" style="stroke:#000000; stroke-width:4; stroke-opacity:1; fill:none" points="
  270.529,693.57 295.516,693.57 
  "/>
<polyline clip-path="url(#clip210)" style="stroke:#000000; stroke-width:4; stroke-opacity:1; fill:none" points="
  270.529,427.435 295.516,427.435 
  "/>
<polyline clip-path="url(#clip210)" style="stroke:#000000; stroke-width:4; stroke-opacity:1; fill:none" points="
  270.529,161.3 295.516,161.3 
  "/>
<path clip-path="url(#clip210)" d="M 0 0 M147.724 1199.92 L175.259 1199.92 L175.259 1205.82 L154.148 1205.82 L154.148 1218.53 Q155.675 1218.01 157.203 1217.77 Q158.731 1217.49 160.259 1217.49 Q168.939 1217.49 174.009 1222.25 Q179.078 1227 179.078 1235.13 Q179.078 1243.5 173.87 1248.15 Q168.661 1252.77 159.182 1252.77 Q155.918 1252.77 152.516 1252.21 Q149.148 1251.66 145.537 1250.55 L145.537 1243.5 Q148.662 1245.2 151.995 1246.03 Q155.328 1246.87 159.043 1246.87 Q165.05 1246.87 168.557 1243.71 Q172.064 1240.55 172.064 1235.13 Q172.064 1229.71 168.557 1226.55 Q165.05 1223.39 159.043 1223.39 Q156.231 1223.39 153.418 1224.02 Q150.641 1224.64 147.724 1225.96 L147.724 1199.92 Z" fill="#000000" fill-rule="evenodd" fill-opacity="1" /><path clip-path="url(#clip210)" d="M 0 0 M186.682 1242.94 L194.009 1242.94 L194.009 1251.76 L186.682 1251.76 L186.682 1242.94 Z" fill="#000000" fill-rule="evenodd" fill-opacity="1" /><path clip-path="url(#clip210)" d="M 0 0 M216.613 1204.54 Q211.196 1204.54 208.453 1209.89 Q205.745 1215.2 205.745 1225.89 Q205.745 1236.55 208.453 1241.9 Q211.196 1247.21 216.613 1247.21 Q222.064 1247.21 224.772 1241.9 Q227.515 1236.55 227.515 1225.89 Q227.515 1215.2 224.772 1209.89 Q222.064 1204.54 216.613 1204.54 M216.613 1198.98 Q225.328 1198.98 229.911 1205.89 Q234.529 1212.77 234.529 1225.89 Q234.529 1238.98 229.911 1245.89 Q225.328 1252.77 216.613 1252.77 Q207.897 1252.77 203.279 1245.89 Q198.696 1238.98 198.696 1225.89 Q198.696 1212.77 203.279 1205.89 Q207.897 1198.98 216.613 1198.98 Z" fill="#000000" fill-rule="evenodd" fill-opacity="1" /><path clip-path="url(#clip210)" d="M 0 0 M147.238 933.786 L180.571 933.786 L180.571 936.772 L161.752 985.626 L154.425 985.626 L172.134 939.689 L147.238 939.689 L147.238 933.786 Z" fill="#000000" fill-rule="evenodd" fill-opacity="1" /><path clip-path="url(#clip210)" d="M 0 0 M188.175 976.806 L195.502 976.806 L195.502 985.626 L188.175 985.626 L188.175 976.806 Z" fill="#000000" fill-rule="evenodd" fill-opacity="1" /><path clip-path="url(#clip210)" d="M 0 0 M203.175 933.786 L230.71 933.786 L230.71 939.689 L209.599 939.689 L209.599 952.397 Q211.126 951.876 212.654 951.633 Q214.182 951.355 215.71 951.355 Q224.39 951.355 229.46 956.112 Q234.529 960.869 234.529 968.994 Q234.529 977.362 229.321 982.015 Q224.113 986.633 214.633 986.633 Q211.37 986.633 207.967 986.077 Q204.599 985.522 200.988 984.411 L200.988 977.362 Q204.113 979.063 207.446 979.897 Q210.779 980.73 214.495 980.73 Q220.501 980.73 224.008 977.57 Q227.515 974.411 227.515 968.994 Q227.515 963.577 224.008 960.418 Q220.501 957.258 214.495 957.258 Q211.682 957.258 208.87 957.883 Q206.092 958.508 203.175 959.827 L203.175 933.786 Z" fill="#000000" fill-rule="evenodd" fill-opacity="1" /><path clip-path="url(#clip210)" d="M 0 0 M108.696 713.588 L120.155 713.588 L120.155 674.039 L107.69 676.539 L107.69 670.15 L120.085 667.65 L127.099 667.65 L127.099 713.588 L138.557 713.588 L138.557 719.49 L108.696 719.49 L108.696 713.588 Z" fill="#000000" fill-rule="evenodd" fill-opacity="1" /><path clip-path="url(#clip210)" d="M 0 0 M161.161 672.269 Q155.745 672.269 153.002 677.616 Q150.293 682.928 150.293 693.623 Q150.293 704.282 153.002 709.629 Q155.745 714.942 161.161 714.942 Q166.613 714.942 169.321 709.629 Q172.064 704.282 172.064 693.623 Q172.064 682.928 169.321 677.616 Q166.613 672.269 161.161 672.269 M161.161 666.713 Q169.877 666.713 174.46 673.623 Q179.078 680.498 179.078 693.623 Q179.078 706.713 174.46 713.622 Q169.877 720.497 161.161 720.497 Q152.446 720.497 147.828 713.622 Q143.245 706.713 143.245 693.623 Q143.245 680.498 147.828 673.623 Q152.446 666.713 161.161 666.713 Z" fill="#000000" fill-rule="evenodd" fill-opacity="1" /><path clip-path="url(#clip210)" d="M 0 0 M186.682 710.671 L194.009 710.671 L194.009 719.49 L186.682 719.49 L186.682 710.671 Z" fill="#000000" fill-rule="evenodd" fill-opacity="1" /><path clip-path="url(#clip210)" d="M 0 0 M216.613 672.269 Q211.196 672.269 208.453 677.616 Q205.745 682.928 205.745 693.623 Q205.745 704.282 208.453 709.629 Q211.196 714.942 216.613 714.942 Q222.064 714.942 224.772 709.629 Q227.515 704.282 227.515 693.623 Q227.515 682.928 224.772 677.616 Q222.064 672.269 216.613 672.269 M216.613 666.713 Q225.328 666.713 229.911 673.623 Q234.529 680.498 234.529 693.623 Q234.529 706.713 229.911 713.622 Q225.328 720.497 216.613 720.497 Q207.897 720.497 203.279 713.622 Q198.696 706.713 198.696 693.623 Q198.696 680.498 203.279 673.623 Q207.897 666.713 216.613 666.713 Z" fill="#000000" fill-rule="evenodd" fill-opacity="1" /><path clip-path="url(#clip210)" d="M 0 0 M112.585 447.452 L124.044 447.452 L124.044 407.904 L111.578 410.404 L111.578 404.015 L123.974 401.515 L130.988 401.515 L130.988 447.452 L142.446 447.452 L142.446 453.355 L112.585 453.355 L112.585 447.452 Z" fill="#000000" fill-rule="evenodd" fill-opacity="1" /><path clip-path="url(#clip210)" d="M 0 0 M156.092 447.452 L180.571 447.452 L180.571 453.355 L147.655 453.355 L147.655 447.452 Q151.648 443.32 158.523 436.376 Q165.432 429.397 167.203 427.383 Q170.571 423.598 171.891 420.994 Q173.245 418.355 173.245 415.821 Q173.245 411.689 170.328 409.085 Q167.446 406.48 162.793 406.48 Q159.495 406.48 155.814 407.626 Q152.168 408.772 148.002 411.098 L148.002 404.015 Q152.238 402.314 155.918 401.446 Q159.599 400.578 162.655 400.578 Q170.71 400.578 175.502 404.605 Q180.293 408.633 180.293 415.369 Q180.293 418.564 179.078 421.446 Q177.897 424.293 174.738 428.182 Q173.87 429.189 169.217 434.015 Q164.564 438.807 156.092 447.452 Z" fill="#000000" fill-rule="evenodd" fill-opacity="1" /><path clip-path="url(#clip210)" d="M 0 0 M188.175 444.536 L195.502 444.536 L195.502 453.355 L188.175 453.355 L188.175 444.536 Z" fill="#000000" fill-rule="evenodd" fill-opacity="1" /><path clip-path="url(#clip210)" d="M 0 0 M203.175 401.515 L230.71 401.515 L230.71 407.418 L209.599 407.418 L209.599 420.126 Q211.126 419.605 212.654 419.362 Q214.182 419.084 215.71 419.084 Q224.39 419.084 229.46 423.841 Q234.529 428.598 234.529 436.723 Q234.529 445.091 229.321 449.744 Q224.113 454.362 214.633 454.362 Q211.37 454.362 207.967 453.807 Q204.599 453.251 200.988 452.14 L200.988 445.091 Q204.113 446.793 207.446 447.626 Q210.779 448.459 214.495 448.459 Q220.501 448.459 224.008 445.3 Q227.515 442.14 227.515 436.723 Q227.515 431.307 224.008 428.147 Q220.501 424.987 214.495 424.987 Q211.682 424.987 208.87 425.612 Q206.092 426.237 203.175 427.557 L203.175 401.515 Z" fill="#000000" fill-rule="evenodd" fill-opacity="1" /><path clip-path="url(#clip210)" d="M 0 0 M110.19 181.317 L121.648 181.317 L121.648 141.769 L109.183 144.269 L109.183 137.88 L121.578 135.38 L128.592 135.38 L128.592 181.317 L140.05 181.317 L140.05 187.22 L110.19 187.22 L110.19 181.317 Z" fill="#000000" fill-rule="evenodd" fill-opacity="1" /><path clip-path="url(#clip210)" d="M 0 0 M147.724 135.38 L175.259 135.38 L175.259 141.283 L154.148 141.283 L154.148 153.991 Q155.675 153.47 157.203 153.227 Q158.731 152.949 160.259 152.949 Q168.939 152.949 174.009 157.706 Q179.078 162.463 179.078 170.588 Q179.078 178.956 173.87 183.609 Q168.661 188.227 159.182 188.227 Q155.918 188.227 152.516 187.671 Q149.148 187.116 145.537 186.005 L145.537 178.956 Q148.662 180.657 151.995 181.491 Q155.328 182.324 159.043 182.324 Q165.05 182.324 168.557 179.164 Q172.064 176.005 172.064 170.588 Q172.064 165.171 168.557 162.012 Q165.05 158.852 159.043 158.852 Q156.231 158.852 153.418 159.477 Q150.641 160.102 147.724 161.421 L147.724 135.38 Z" fill="#000000" fill-rule="evenodd" fill-opacity="1" /><path clip-path="url(#clip210)" d="M 0 0 M186.682 178.4 L194.009 178.4 L194.009 187.22 L186.682 187.22 L186.682 178.4 Z" fill="#000000" fill-rule="evenodd" fill-opacity="1" /><path clip-path="url(#clip210)" d="M 0 0 M216.613 139.998 Q211.196 139.998 208.453 145.345 Q205.745 150.657 205.745 161.352 Q205.745 172.012 208.453 177.359 Q211.196 182.671 216.613 182.671 Q222.064 182.671 224.772 177.359 Q227.515 172.012 227.515 161.352 Q227.515 150.657 224.772 145.345 Q222.064 139.998 216.613 139.998 M216.613 134.442 Q225.328 134.442 229.911 141.352 Q234.529 148.227 234.529 161.352 Q234.529 174.442 229.911 181.352 Q225.328 188.227 216.613 188.227 Q207.897 188.227 203.279 181.352 Q198.696 174.442 198.696 161.352 Q198.696 148.227 203.279 141.352 Q207.897 134.442 216.613 134.442 Z" fill="#000000" fill-rule="evenodd" fill-opacity="1" /><path clip-path="url(#clip210)" d="M 0 0 M46.228 753.054 Q48.7108 753.054 50.3035 754.694 Q51.8962 756.287 51.8962 758.348 Q51.8962 760.128 50.8656 761.065 Q49.8351 762.002 48.5234 762.002 Q46.6496 762.002 45.1037 760.55 Q43.5578 759.097 43.2299 756.989 Q42.1056 758.535 42.1056 761.018 Q42.1056 765.094 45.2443 768.701 Q46.6964 770.293 49.3666 772.027 Q51.9899 773.76 53.1142 774.088 L65.6218 777.133 Q67.0271 777.414 73.7728 779.147 Q80.4716 780.833 80.7527 780.974 Q82.0643 781.442 82.767 782.473 Q83.4697 783.504 83.4697 784.534 Q83.4697 785.705 82.767 786.502 Q82.0643 787.298 80.8464 787.298 Q80.659 787.298 79.9563 787.158 Q79.2536 787.017 78.2699 786.783 Q77.2862 786.549 76.724 786.455 L54.5664 780.88 Q50.5377 779.85 49.2729 779.615 Q47.9613 779.334 46.5091 779.334 Q43.9794 779.334 43.0425 780.131 Q42.1056 780.927 42.1056 782.332 Q42.1056 784.768 45.01 786.361 Q47.9144 787.954 53.5358 789.312 Q55.0817 789.734 55.4096 790.015 Q55.7375 790.249 55.7375 790.952 Q55.6907 792.123 54.7538 792.123 Q54.5195 792.123 53.0205 791.748 Q51.4746 791.374 49.2261 790.671 Q46.9307 789.921 45.4785 789.125 Q44.4947 788.657 43.8389 788.235 Q43.1831 787.813 42.1525 786.97 Q41.1219 786.127 40.5598 784.862 Q39.9976 783.597 39.9976 782.051 Q39.9976 778.679 42.0588 776.29 Q44.12 773.854 47.3523 773.291 Q45.6659 772.12 44.2137 770.668 Q42.7146 769.216 41.3561 766.546 Q39.9976 763.876 39.9976 761.018 Q39.9976 757.458 41.8246 755.256 Q43.6047 753.054 46.228 753.054 Z" fill="#000000" fill-rule="evenodd" fill-opacity="1" /><path clip-path="url(#clip210)" d="M 0 0 M91.4803 706.797 Q91.7426 706.797 92.7592 707.092 Q93.7757 707.387 95.3497 708.109 Q96.9237 708.797 98.3665 709.748 Q99.7765 710.699 100.826 712.273 Q101.842 713.814 101.842 715.585 Q101.842 717.946 100.268 719.52 Q98.6944 721.094 96.3334 721.094 Q95.0218 721.094 93.2182 720.406 Q81.5773 716.044 77.5767 716.044 Q72.8876 716.044 72.8876 719.684 Q72.8876 721.488 73.5762 723.193 Q74.232 724.865 75.1502 726.013 Q76.0683 727.161 77.3472 728.21 Q78.5933 729.226 79.4458 729.751 Q80.2656 730.243 81.0854 730.636 L84.4301 731.489 Q85.3483 731.686 88.9226 732.637 L94.989 734.112 Q99.5142 735.162 99.9405 735.391 Q100.859 735.719 101.351 736.441 Q101.842 737.162 101.842 737.883 Q101.842 738.703 101.351 739.261 Q100.859 739.818 100.006 739.818 Q99.8749 739.818 99.383 739.72 Q98.8912 739.621 98.2025 739.457 Q97.5139 739.293 97.1204 739.228 L81.6101 735.326 Q78.79 734.604 77.9047 734.44 Q76.9865 734.244 75.97 734.244 Q72.8876 734.244 72.8876 736.342 Q72.8876 738.047 74.9206 739.162 Q76.9537 740.277 80.8887 741.228 Q81.9708 741.523 82.2003 741.72 Q82.4299 741.884 82.4299 742.376 Q82.3971 743.196 81.7412 743.196 Q81.5773 743.196 80.4952 742.933 Q79.4131 742.671 77.8719 742.179 Q76.2979 741.654 75.2485 741.163 Q74.4616 740.736 74.1008 740.507 Q73.7074 740.244 72.9531 739.621 Q72.1662 738.965 71.8054 738.113 Q71.412 737.228 71.412 736.145 Q71.412 733.719 72.9859 731.948 Q74.5271 730.177 77.2488 729.948 Q71.412 725.587 71.412 719.487 Q71.412 715.88 73.3139 713.814 Q75.2158 711.749 78.5933 711.749 Q79.3803 711.749 80.3968 711.913 Q81.3805 712.044 82.6266 712.372 Q83.8727 712.667 84.8236 712.929 Q85.7746 713.191 87.3158 713.716 Q88.8242 714.241 89.48 714.47 Q90.1359 714.7 91.6771 715.257 Q93.1855 715.782 93.3494 715.848 Q96.399 717.061 98.137 717.061 Q99.2847 717.061 99.8093 716.7 Q100.334 716.307 100.334 715.454 Q100.334 713.159 98.0714 711.453 Q95.776 709.716 92.0378 708.601 Q91.218 708.338 91.0212 708.207 Q90.8245 708.043 90.8245 707.584 Q90.8245 706.797 91.4803 706.797 Z" fill="#000000" fill-rule="evenodd" fill-opacity="1" /><path clip-path="url(#clip210)" d="M 0 0 M91.4803 666.923 Q91.7426 666.923 92.7592 667.218 Q93.7757 667.513 95.3497 668.235 Q96.9237 668.923 98.3665 669.874 Q99.7765 670.825 100.826 672.399 Q101.842 673.94 101.842 675.711 Q101.842 678.072 100.268 679.646 Q98.6944 681.22 96.3334 681.22 Q95.0218 681.22 93.2182 680.532 Q81.5773 676.17 77.5767 676.17 Q72.8876 676.17 72.8876 679.81 Q72.8876 681.614 73.5762 683.319 Q74.232 684.991 75.1502 686.139 Q76.0683 687.287 77.3472 688.336 Q78.5933 689.352 79.4458 689.877 Q80.2656 690.369 81.0854 690.762 L84.4301 691.615 Q85.3483 691.812 88.9226 692.763 L94.989 694.238 Q99.5142 695.288 99.9405 695.517 Q100.859 695.845 101.351 696.567 Q101.842 697.288 101.842 698.009 Q101.842 698.829 101.351 699.387 Q100.859 699.944 100.006 699.944 Q99.8749 699.944 99.383 699.846 Q98.8912 699.747 98.2025 699.583 Q97.5139 699.419 97.1204 699.354 L81.6101 695.452 Q78.79 694.73 77.9047 694.566 Q76.9865 694.369 75.97 694.369 Q72.8876 694.369 72.8876 696.468 Q72.8876 698.173 74.9206 699.288 Q76.9537 700.403 80.8887 701.354 Q81.9708 701.649 82.2003 701.846 Q82.4299 702.01 82.4299 702.502 Q82.3971 703.322 81.7412 703.322 Q81.5773 703.322 80.4952 703.059 Q79.4131 702.797 77.8719 702.305 Q76.2979 701.78 75.2485 701.288 Q74.4616 700.862 74.1008 700.633 Q73.7074 700.37 72.9531 699.747 Q72.1662 699.091 71.8054 698.239 Q71.412 697.354 71.412 696.271 Q71.412 693.845 72.9859 692.074 Q74.5271 690.303 77.2488 690.074 Q71.412 685.713 71.412 679.613 Q71.412 676.006 73.3139 673.94 Q75.2158 671.875 78.5933 671.875 Q79.3803 671.875 80.3968 672.039 Q81.3805 672.17 82.6266 672.498 Q83.8727 672.793 84.8236 673.055 Q85.7746 673.317 87.3158 673.842 Q88.8242 674.367 89.48 674.596 Q90.1359 674.826 91.6771 675.383 Q93.1855 675.908 93.3494 675.974 Q96.399 677.187 98.137 677.187 Q99.2847 677.187 99.8093 676.826 Q100.334 676.433 100.334 675.58 Q100.334 673.285 98.0714 671.579 Q95.776 669.842 92.0378 668.727 Q91.218 668.464 91.0212 668.333 Q90.8245 668.169 90.8245 667.71 Q90.8245 666.923 91.4803 666.923 Z" fill="#000000" fill-rule="evenodd" fill-opacity="1" /><polyline clip-path="url(#clip213)" style="stroke:#009af9; stroke-width:4; stroke-opacity:1; fill:none" points="
  329.46,85.4755 378.569,138.702 427.678,191.928 476.787,245.153 525.897,298.374 575.006,351.589 624.115,404.792 673.224,457.972 722.333,511.109 771.442,564.17 
  820.551,617.102 869.66,669.823 918.77,722.21 967.879,774.092 1016.99,825.243 1066.1,875.376 1115.21,924.151 1164.32,971.195 1213.42,1016.12 1262.53,1058.56 
  1311.64,1098.19 1360.75,1134.76 1409.86,1168.13 1458.97,1198.21 1508.08,1225.03 1557.19,1248.67 1606.3,1269.27 1655.41,1287.02 1704.52,1302.12 1753.62,1314.8 
  1802.73,1325.31 1851.84,1333.87 1900.95,1340.74 1950.06,1346.14 1999.17,1350.31 2048.28,1353.44 2097.39,1355.75 2146.5,1357.4 2195.61,1358.56 2244.72,1359.34 
  2293.82,1359.86 
  "/>
</svg>
